<svg xmlns="http://www.w3.org/2000/svg" fill-rule="evenodd" clip-rule="evenodd" image-rendering="optimizeQuality" shape-rendering="geometricPrecision" text-rendering="geometricPrecision" viewBox="0 0 1518.127 856.01"><path fill="#ebf0d2" d="M1013.125 45c-.09.996.25 1.83 1 2.5 4.18 1.79 8.18 3.79 12 6 2.45 3.717 1.78 4.217-2 1.5-2.11 1.843-3.27 4.176-3.5 7-.33-.333-.67-.667-1-1-.33 2.333-.67 4.667-1 7-.41.457-.91.791-1.5 1a28.976 28.976 0 0 0-12-3.5c-1.33-.667-1.33-1.333 0-2-4.48-.577-8.48-2.243-12-5-5.47-1.558-10.81-1.39-16 .5-.8.457-1.13 1.124-1 2-14.48 5.537-29.48 9.037-45 10.5-12.36.752-24.69.585-37-.5-8.33-3.54-16.67-5.374-25-5.5-5.78-2.597-11.11-4.764-16-6.5-1.29-2.91-.29-4.744 3-5.5a10.252 10.252 0 0 1-4-1.5 26.496 26.496 0 0 0-3-6.5l8 1c-2.12-1.738-1.96-3.572.5-5.5l1.5 1.5c-.61 1.13-.61 2.463 0 4-2.26 5.157-.92 5.824 4 2a3.627 3.627 0 0 1-1-1.5c2.07-1.476 3.07-3.476 3-6 2.04-.354 3.87-.354 5.5 0-.53-5.143 1.64-6.976 6.5-5.5a22.59 22.59 0 0 1 5 3.5 6.824 6.824 0 0 0 1.5-3c1.67.84 1.83.34.5-1.5 2.91-2.313 4.25-5.146 4-8.5-1.33 1.333-2.67 1.333-4 0a4.486 4.486 0 0 0-1.5 2c-1.7-.906-3.53-1.239-5.5-1 .41-2.15.91-4.15 1.5-6-.33-.333-.67-.667-1-1-1.99 1.96-4.15 1.793-6.5-.5 4-1 4-2 0-3 1.32-.816 1.99-1.983 2-3.5 12.26-4.253 24.59-8.419 37-12.5 4-.667 8-.667 12 0 30.46 14.896 60.79 29.73 91 44.5z"/><path fill="#ecf0d6" d="M873.125 13c-.01 1.517-.68 2.684-2 3.5 4 1 4 2 0 3 2.35 2.293 4.51 2.46 6.5.5.33.333.67.667 1 1-.59 1.85-1.09 3.85-1.5 6 1.97-.239 3.8.094 5.5 1 .31-.808.81-1.475 1.5-2 1.33 1.333 2.67 1.333 4 0 .25 3.354-1.09 6.187-4 8.5 1.33 1.84 1.17 2.34-.5 1.5a6.824 6.824 0 0 1-1.5 3 22.59 22.59 0 0 0-5-3.5c-4.86-1.476-7.03.357-6.5 5.5-1.63-.354-3.46-.354-5.5 0 .07 2.524-.93 4.524-3 6 .21.586.54 1.086 1 1.5-4.92 3.824-6.26 3.157-4-2-.61-1.537-.61-2.87 0-4l-1.5-1.5c-2.46 1.928-2.62 3.762-.5 5.5l-8-1a26.496 26.496 0 0 1 3 6.5c1.23.781 2.56 1.281 4 1.5-3.29.756-4.29 2.59-3 5.5 4.89 1.736 10.22 3.903 16 6.5 8.33.126 16.67 1.96 25 5.5-22.43-1.42-43.43-7.588-63-18.5-5.58-1.517-11.25-1.85-17-1a27650.659 27650.659 0 0 0-126 41.5l-23-11.5a12172.697 12172.697 0 0 1 208-68.5z"/><path fill="#fdfcf5" d="M818.125 70c38.38 16.117 78.38 21.95 120 17.5a239.651 239.651 0 0 0 41-7c2.33-.667 4.67-.667 7 0 58.34 28.17 116.34 56.837 174 86-10.92 4.038-20.42 10.204-28.5 18.5-9.74 14.974-8.24 28.807 4.5 41.5 2.67 2 5.33 4 8 6a4572.506 4572.506 0 0 0-102 34c-1.67.667-3.33.667-5 0-107.91-53.62-215.91-107.286-324-161 35.06-11.964 70.06-23.797 105-35.5z"/><path fill="#d6b056" d="M608.125 99c-4.01 2.627-8.344 4.794-13 6.5-3.67.548-7.337 1.048-11 1.5a168.889 168.889 0 0 1 24-8z"/><path fill="#dcb65d" d="M648.125 108a89.847 89.847 0 0 1-23-10.5 38.162 38.162 0 0 0-16 1.5c4.885-2.899 10.219-4.066 16-3.5 7.729 4.195 15.395 8.362 23 12.5z"/><path fill="#d3ad54" d="M583.125 107c-1.71 2.313-4.043 3.813-7 4.5a330.794 330.794 0 0 1-24 6.5c.11-.617.444-1.117 1-1.5a520.881 520.881 0 0 1 30-9.5z"/><path fill="#d2ab56" d="M552.125 118c-1.348 1.98-3.348 3.147-6 3.5a198.932 198.932 0 0 1-19 4.5c7.863-3.842 16.197-6.509 25-8z"/><path fill="#dab660" d="M649.125 108a4076.476 4076.476 0 0 1 108 54c-23.603-11.133-47.27-22.3-71-33.5a1142.22 1142.22 0 0 0-34-17c-1.563-.759-2.563-1.926-3-3.5z"/><path fill="#e0b758" d="M527.125 126c-8.895 3.58-17.895 7.08-27 10.5a32.462 32.462 0 0 1-8 .5 333.346 333.346 0 0 1 35-11z"/><path fill="#c7a557" d="M492.125 137c-.847 1.466-2.18 2.3-4 2.5a70.523 70.523 0 0 1-9 1.5 114.325 114.325 0 0 1 13-4z"/><path fill="#c1a057" d="M473.125 143a115.45 115.45 0 0 0-11 5h-4c4.585-2.64 9.585-4.306 15-5z"/><path fill="#eec051" d="M458.125 148h4a363.03 363.03 0 0 1-36 12 182.87 182.87 0 0 0 14-6 95.055 95.055 0 0 1 18-6z"/><path fill="#d4b15f" d="M440.125 154a182.87 182.87 0 0 1-14 6 308.848 308.848 0 0 0-23 6 235.996 235.996 0 0 1 37-12z"/><path fill="#ecf0d5" d="M1013.125 45a37221.914 37221.914 0 0 1 328 160 51.572 51.572 0 0 1-14-5.5c-2-.667-4-.667-6 0-1.07 1.63-2.4 2.796-4 3.5 1.66 1.811 1.83 3.478.5 5-1.39-1.054-2.89-1.22-4.5-.5.33.333.67.667 1 1-2.82.068-4.99 1.234-6.5 3.5-.33-.333-.67-.667-1-1-2.99 2.708-6.32 4.708-10 6a4.486 4.486 0 0 0-1.5-2c-2.38 1.571-5.05 2.404-8 2.5 1.33 1 1.33 2 0 3 .81.308 1.47.808 2 1.5-6.98 1.218-7.32 2.551-1 4a7.32 7.32 0 0 1-3 2c-1.9.164-3.9-.169-6-1-1.15-.318-1.98-.984-2.5-2-1.32 1.987-3.15 3.154-5.5 3.5 1.17 2.833.33 3.667-2.5 2.5a20.886 20.886 0 0 0-6.5 3c.2-1.029-.3-2.029-1.5-3a4850.28 4850.28 0 0 1-9 5 3.595 3.595 0 0 0-1.5-1c-1.48 3.756-3.81 4.59-7 2.5 2.95-.112 4.28-1.612 4-4.5-2.1-.023-3.93.644-5.5 2a3.947 3.947 0 0 1-2-1c.49 1.544.99 3.21 1.5 5-1.32.17-2.49-.163-3.5-1-.83.833-1.67 1.667-2.5 2.5l6 1c-1.47.71-2.14 1.876-2 3.5-4.72.68-9.39 1.68-14 3-2.7-1.94-4.03-1.273-4 2-3 .834-5.67 2.167-8 4-3.6.107-7.1.774-10.5 2-1.54-.535-3.04-.868-4.5-1-2.39 1.887-4.89 2.554-7.5 2a328.318 328.318 0 0 1-27.5 11.5 97.602 97.602 0 0 1-13 3 103.494 103.494 0 0 1-11.5 5.5 3.947 3.947 0 0 1-2-1 132.73 132.73 0 0 1-14.5 3.5c-1.23 2.45-2.89 2.95-5 1.5a33.942 33.942 0 0 1-5.5 4c-.33-.667-.67-1.333-1-2-3.43 4.438-7.93 6.605-13.5 6.5-2.6.977-5.1 2.144-7.5 3.5a3.595 3.595 0 0 0-1.5-1 17.717 17.717 0 0 0-6.5 4c-1.36-.758-2.53-.258-3.5 1.5-2.45.29-4.79.956-7 2-.75.671-1.09 1.504-1 2.5h-2c-.31-7.924-2.97-14.924-8-21 41.19-13.923 82.36-27.923 123.5-42 2.15-2.716 1.98-5.216-.5-7.5-9.78-3.632-18.28-9.132-25.5-16.5-4.91-7.919-4.57-15.585 1-23 11.95-9.666 25.45-16.499 40.5-20.5 1.94-2.153 2.44-4.653 1.5-7.5a6841.597 6841.597 0 0 0-210.5-103.5c-4.72-.717-9.39-.55-14 .5-.13-.876.2-1.543 1-2 5.19-1.89 10.53-2.058 16-.5 3.52 2.757 7.52 4.423 12 5-1.33.667-1.33 1.333 0 2 4.26.295 8.26 1.462 12 3.5a3.595 3.595 0 0 0 1.5-1c.33-2.333.67-4.667 1-7 .33.333.67.667 1 1 .23-2.824 1.39-5.157 3.5-7 3.78 2.717 4.45 2.217 2-1.5a111.527 111.527 0 0 0-12-6c-.75-.67-1.09-1.504-1-2.5z"/><path fill="#dfb95f" d="M758.125 162a254.63 254.63 0 0 1 19 10 86.026 86.026 0 0 1-18-7.5c-.75-.67-1.09-1.504-1-2.5z"/><path fill="#deb657" d="M403.125 166c-7.592 4.64-15.925 7.307-25 8 7.879-3.848 16.213-6.514 25-8z"/><path fill="#d8b157" d="M378.125 174c-3.6 2.362-7.6 4.195-12 5.5a763.944 763.944 0 0 0-17 3.5 146.53 146.53 0 0 1 29-9z"/><path fill="#e9bf58" d="M809.125 188a51.368 51.368 0 0 1 15 7c-6.22.055-11.22-2.278-15-7z"/><path fill="#dfb554" d="M348.125 183c-5.308 3.287-10.975 6.12-17 8.5a872.491 872.491 0 0 0-32 9.5c-.303 3.088 1.03 4.754 4 5 .792 2.385 2.126 4.385 4 6a246.258 246.258 0 0 1-19-9 2038 2038 0 0 1 60-20z"/><path fill="#ebf1cf" d="M1341.125 205a16.38 16.38 0 0 1 5 2v4a6479.627 6479.627 0 0 1-133 43c2.33-1.833 5-3.166 8-4-.03-3.273 1.3-3.94 4-2 4.61-1.32 9.28-2.32 14-3-.14-1.624.53-2.79 2-3.5l-6-1c.83-.833 1.67-1.667 2.5-2.5 1.01.837 2.18 1.17 3.5 1-.51-1.79-1.01-3.456-1.5-5 .56.522 1.23.855 2 1 1.57-1.356 3.4-2.023 5.5-2 .28 2.888-1.05 4.388-4 4.5 3.19 2.09 5.52 1.256 7-2.5.59.21 1.09.543 1.5 1 3.03-1.679 6.03-3.346 9-5 1.2.971 1.7 1.971 1.5 3a20.886 20.886 0 0 1 6.5-3c2.83 1.167 3.67.333 2.5-2.5 2.35-.346 4.18-1.513 5.5-3.5.52 1.016 1.35 1.682 2.5 2 2.1.831 4.1 1.164 6 1a7.32 7.32 0 0 0 3-2c-6.32-1.449-5.98-2.782 1-4a4.473 4.473 0 0 0-2-1.5c1.33-1 1.33-2 0-3 2.95-.096 5.62-.929 8-2.5a4.486 4.486 0 0 1 1.5 2c3.68-1.292 7.01-3.292 10-6 .33.333.67.667 1 1 1.51-2.266 3.68-3.432 6.5-3.5-.33-.333-.67-.667-1-1 1.61-.72 3.11-.554 4.5.5 1.33-1.522 1.16-3.189-.5-5 1.6-.704 2.93-1.87 4-3.5 2-.667 4-.667 6 0a51.572 51.572 0 0 0 14 5.5z"/><path fill="#dbb55d" d="M825.125 196a193.768 193.768 0 0 1 29 14c-6.97-2.814-13.97-5.647-21-8.5-3.22-1.104-5.89-2.937-8-5.5z"/><path fill="#deb85d" d="M855.125 210a499.557 499.557 0 0 0 27 13l12 7a480.95 480.95 0 0 1-38-17c-.89-.825-1.22-1.825-1-3z"/><path fill="#edf0da" d="M216.125 247a71.831 71.831 0 0 0 7.5-7c1.399.001 2.899.335 4.5 1a66.028 66.028 0 0 0 7.5-4c1.144.411 2.31.744 3.5 1 .858-1.5 2.692-2.5 5.5-3l1 1c1.009-1.525 1.509-3.192 1.5-5-1.291-1.278-3.291-1.945-6-2 .219-1.175-.114-2.175-1-3-3.37 2.15-6.37 1.984-9-.5-2.75.24-5.415.072-8-.5a194.686 194.686 0 0 1 23.5-8c8.118 3.823 16.285 7.656 24.5 11.5a1775.91 1775.91 0 0 1-55 18.5z"/><path fill="#e2b853" d="M315.125 216a33.546 33.546 0 0 1 10 2.5c3.928 1.788 7.26 4.288 10 7.5-7.295-2.314-13.961-5.647-20-10z"/><path fill="#1a0f02" d="M882.125 223c2.61.636 5.11.636 7.5 0 1.95 1.681 3.95 2.348 6 2 2.87 1.032 4.37 3.032 4.5 6 6.61.283 12.28 2.283 17 6 .89.825 1.22 1.825 1 3 2.47-.412 3.81.588 4 3-2.67-1-5.33-2-8-3a254.63 254.63 0 0 0-19-10h-1l-12-7z"/><path fill="#c7a453" d="M335.125 226a8.43 8.43 0 0 1 4 .5 157.284 157.284 0 0 0 6 4.5c-3.83-.867-7.163-2.533-10-5z"/><path fill="#eac15c" d="M895.125 230a254.63 254.63 0 0 1 19 10 71.227 71.227 0 0 1-15-5.5c-2.14-.876-3.47-2.376-4-4.5z"/><path fill="#c7a352" d="M345.125 231c8.697 2.672 16.697 6.672 24 12-8.628-2.98-16.628-6.98-24-12z"/><path fill="#fdfcf4" d="M291.125 242c2.357-.163 4.69.003 7 .5 107.24 53.954 214.573 107.954 322 162a19408.348 19408.348 0 0 0-105 34.5c-25.467-11.199-52.134-17.366-80-18.5-26.784-1.93-53.118.57-79 7.5a7165.488 7165.488 0 0 1-176-86.5c12.46-4.312 22.96-11.479 31.5-21.5 8.995-18.86 4.495-33.694-13.5-44.5-1.333-.667-1.333-1.333 0-2a15353.339 15353.339 0 0 1 93-31.5z"/><path fill="#ecf1d3" d="M223.125 225c2.585.572 5.25.74 8 .5 2.63 2.484 5.63 2.65 9 .5.886.825 1.219 1.825 1 3 2.709.055 4.709.722 6 2 .009 1.808-.491 3.475-1.5 5l-1-1c-2.808.5-4.642 1.5-5.5 3a27.395 27.395 0 0 1-3.5-1 66.028 66.028 0 0 1-7.5 4c-1.601-.665-3.101-.999-4.5-1a71.831 71.831 0 0 1-7.5 7 1644.077 1644.077 0 0 1-53 17.5c-3.69.823-6.023 2.99-7 6.5.137 1.607.804 2.941 2 4 9.475 3.818 17.64 9.484 24.5 17 6.525 13.757 3.025 24.257-10.5 31.5a125.177 125.177 0 0 1-31 12c-2.79 2.21-3.623 5.044-2.5 8.5a19655.44 19655.44 0 0 0 205.5 102.5c5.246 1.51 10.579 1.84 16 1a68.522 68.522 0 0 1 14-4.5 16.076 16.076 0 0 1 5 2c7.583-3.456 15.583-4.623 24-3.5l4 3c-2.432 1.087-2.098 1.587 1 1.5.878-4.125 2.545-4.625 5-1.5-1.456.423-1.956 1.256-1.5 2.5 2.086-2.54 3.586-2.373 4.5.5-.43 1.43-1.264 2.6-2.5 3.5-1.333-1.33-2.667-2.67-4-4-.967 1.18-1.467 2.51-1.5 4a44.211 44.211 0 0 1-9 3c4.537.38 7.37 2.71 8.5 7 .333-.33.667-.67 1-1l3 3a29.84 29.84 0 0 0 2.5-6.5c2.946-.09 5.946-.92 9-2.5a12.355 12.355 0 0 1 4.5 5l3-3c.347 1.68 1.347 2.68 3 3a18.073 18.073 0 0 0 4.5-5.5c4.72-.22 9.387-.72 14-1.5a4.473 4.473 0 0 1 1.5 2c.333-.33.667-.67 1-1 2.97.93 4.803 2.93 5.5 6a14.82 14.82 0 0 1 3-4.5c.949-.62 1.782-.45 2.5.5 3.749-2.27 7.583-4.27 11.5-6 7.787.58 14.787 3.08 21 7.5a15.074 15.074 0 0 1-3 3.5c.346 1.2.846 1.2 1.5 0 .667 1 .667 2 0 3l-5.5 4.5c.227 1.14.56 2.3 1 3.5 2.05-.58 3.05-1.91 3-4 1.644.21 3.144-.12 4.5-1 .967 1.18 1.467 2.51 1.5 4 1.923.81 3.923 1.31 6 1.5-2.667 2.33-5.333 4.67-8 7 2.338 4.79 5.172 5.29 8.5 1.5.414.46.914.79 1.5 1 2.838-2.35 6.005-4.02 9.5-5 .464.59.63 1.26.5 2-17.628 6.14-35.294 12.31-53 18.5-5.32 1.23-10.654 2.4-16 3.5-3.153-1.28-5.82-.45-8 2.5-6.077 2.77-12.411 3.77-19 3 .333-.33.667-.67 1-1-1.35-.77-2.182-1.94-2.5-3.5-3.353-.18-6.52.15-9.5 1-2.845-3.35-6.512-4.85-11-4.5a54.259 54.259 0 0 1-12-7 13.007 13.007 0 0 0-5-.5 2619.588 2619.588 0 0 1-73-36 221.713 221.713 0 0 0-41-21.5l-4.5-5.5c-1.808.388-3.475.388-5 0a93.09 93.09 0 0 0-13.5-6.5 17.758 17.758 0 0 0-7-1.5 3321.666 3321.666 0 0 0-17-10.5c-8.588-2.962-16.421-7.129-23.5-12.5l-1-3c-1.537-.413-3.204-.413-5 0a303.455 303.455 0 0 1-21-10 3.647 3.647 0 0 1-1.5 1c-4.463-3.643-9.463-6.143-15-7.5a131.504 131.504 0 0 0-27-16 9.454 9.454 0 0 1-1.5-2.5 4.457 4.457 0 0 1-1.5 2c-3.072-1.772-6.405-2.939-10-3.5a29.85 29.85 0 0 1-9-6l-5-1c-9.162-5.412-18.83-10.079-29-14-2.623-3.787-6.29-6.12-11-7l3-3c-1.167-.5-2-1.333-2.5-2.5-2.267 1.435-4.267 1.102-6-1-4.204 1.398-8.371 1.231-12.5-.5a55.738 55.738 0 0 1-6-6.5l-2 1a25.547 25.547 0 0 0-5.5-9c-1.7 4.562-3.7 4.895-6 1a6.293 6.293 0 0 1-3 1 100.78 100.78 0 0 0-13.5-4l-6-2c-.801-1.542-1.134-3.208-1-5a10803.27 10803.27 0 0 1 222-73z"/><path fill="#edbc46" d="M369.125 243a289.418 289.418 0 0 0 15.5 3c1.169.51 2.002 1.342 2.5 2.5 3.196.396 6.03 1.562 8.5 3.5l1-1c1.746 3.25 4.246 5.583 7.5 7a34.233 34.233 0 0 1 11.5 4c3.008-1.386 4.508-.719 4.5 2l2-1a51.28 51.28 0 0 1 2 6c6.678 4.51 14.01 7.01 22 7.5-1.333.667-1.333 1.333 0 2 5.006 1.012 9.339 3.18 13 6.5a6.846 6.846 0 0 1 1 4 1936.444 1936.444 0 0 1-91-46z"/><path fill="#ddb559" d="M931.125 248a1551.144 1551.144 0 0 1 47 24 8.43 8.43 0 0 1-4-.5 1733.74 1733.74 0 0 0-42-21c-.75-.67-1.09-1.504-1-2.5z"/><path fill="#e0b95c" d="M979.125 272a254.63 254.63 0 0 1 19 10 202.833 202.833 0 0 1-18-7.5c-.75-.67-1.09-1.504-1-2.5z"/><path fill="#e9f2c8" d="M1213.125 254a21863.53 21863.53 0 0 1-143 48c-.09-.996.25-1.829 1-2.5a22.485 22.485 0 0 1 7-2c.97-1.758 2.14-2.258 3.5-1.5a17.717 17.717 0 0 1 6.5-4c.59.21 1.09.543 1.5 1 2.4-1.356 4.9-2.523 7.5-3.5 5.57.105 10.07-2.062 13.5-6.5.33.667.67 1.333 1 2 2-1.172 3.83-2.505 5.5-4 2.11 1.45 3.77.95 5-1.5 4.93-.903 9.77-2.07 14.5-3.5.56.522 1.23.855 2 1 3.98-1.612 7.81-3.446 11.5-5.5a97.602 97.602 0 0 0 13-3 328.318 328.318 0 0 0 27.5-11.5c2.61.554 5.11-.113 7.5-2 1.46.132 2.96.465 4.5 1 3.4-1.226 6.9-1.893 10.5-2z"/><path fill="#b6ca87" d="M1346.125 207c1 18.16 1.33 36.492 1 55a81.727 81.727 0 0 0-10 2c2.16-1.234 4.33-2.567 6.5-4-.26-11.694-.09-23.194.5-34.5.02-2.389-.65-4.556-2-6.5-2.88.175-5.54-.158-8-1a4.486 4.486 0 0 0-1.5 2c-1.4-.55-2.73-.884-4-1-.92 2.132-2.25 2.8-4 2-.84 1.124-2.01 1.791-3.5 2-4.29-1.843-7.96-1.009-11 2.5a58.463 58.463 0 0 1-20 5 1627.53 1627.53 0 0 1-43 16c-7.78 1.108-15.11 3.441-22 7a344.72 344.72 0 0 0-53 17l-7 1a1143.245 1143.245 0 0 1-51 17c-13.49 6.1-27.16 11.1-41 15-1.36 1.584-2.03 3.418-2 5.5 3.72.18 7.38-.154 11-1a885.3 885.3 0 0 0 58.5 2l56.5-.5a81.252 81.252 0 0 1 19-5.5 190.243 190.243 0 0 1-18 6.5c-43.33.5-86.67.667-130 .5v-9h2a21863.53 21863.53 0 0 0 143-48 6479.627 6479.627 0 0 0 133-43v-4z"/><path fill="#b4cf7a" d="M1337.125 264c-20.59 6.974-41.25 13.974-62 21a370.383 370.383 0 0 0-29 10l-30 9a81.252 81.252 0 0 0-19 5.5l-56.5.5a885.3 885.3 0 0 1-58.5-2c-3.62.846-7.28 1.18-11 1-.03-2.082.64-3.916 2-5.5 13.84-3.9 27.51-8.9 41-15a1143.245 1143.245 0 0 0 51-17l7-1a344.72 344.72 0 0 1 53-17c6.89-3.559 14.22-5.892 22-7a1627.53 1627.53 0 0 0 43-16 58.463 58.463 0 0 0 20-5c3.04-3.509 6.71-4.343 11-2.5 1.49-.209 2.66-.876 3.5-2 1.75.8 3.08.132 4-2 1.27.116 2.6.45 4 1 .31-.808.81-1.475 1.5-2 2.46.842 5.12 1.175 8 1 1.35 1.944 2.02 4.111 2 6.5a463.973 463.973 0 0 0-.5 34.5 118.238 118.238 0 0 1-6.5 4z"/><path fill="#e4bb5d" d="M999.125 282a593.172 593.172 0 0 1 29 15c-.06 1.11-.39 2.11-1 3-2.06.017-4.06.35-6 1 .33-.667.67-1.333 1-2 1 .03 1.66-.47 2-1.5a9.527 9.527 0 0 0-3-3 80.702 80.702 0 0 0-15-6 203.13 203.13 0 0 1-7-6.5z"/><path fill="#14190b" d="M1275.125 285c-3.07 1.408-5.74 3.574-8 6.5a89.628 89.628 0 0 1-21 3.5 370.383 370.383 0 0 1 29-10z"/><path fill="#dcb559" d="M468.125 293c2.047.011 4.047.344 6 1a87.45 87.45 0 0 0 11 6c.798.457 1.13 1.124 1 2a113.366 113.366 0 0 1-18-9z"/><path fill="#f9bf31" d="M648.125 108h1c.437 1.574 1.437 2.741 3 3.5a1142.22 1142.22 0 0 1 34 17c23.73 11.2 47.397 22.367 71 33.5h1c-.09.996.25 1.83 1 2.5a86.026 86.026 0 0 0 18 7.5 358.62 358.62 0 0 1 32 16c3.78 4.722 8.78 7.055 15 7 .67 0 1 .333 1 1 2.11 2.563 4.78 4.396 8 5.5 7.03 2.853 14.03 5.686 21 8.5h1c-.22 1.175.11 2.175 1 3a480.95 480.95 0 0 0 38 17h1c.53 2.124 1.86 3.624 4 4.5a71.227 71.227 0 0 0 15 5.5c2.67 1 5.33 2 8 3a58 58 0 0 0 9 5c-.09.996.25 1.83 1 2.5a1733.74 1733.74 0 0 1 42 21 8.43 8.43 0 0 0 4 .5h1c-.09.996.25 1.83 1 2.5a202.833 202.833 0 0 0 18 7.5h1a203.13 203.13 0 0 0 7 6.5 80.702 80.702 0 0 1 15 6 9.527 9.527 0 0 1 3 3c-.34 1.03-1 1.53-2 1.5a370.58 370.58 0 0 1-27 5.5c-2.54 2.093-5.54 3.093-9 3 .33.333.67.667 1 1-54.17.167-108.17.667-162 1.5a344.528 344.528 0 0 1-24 8.5c.33.333.67.667 1 1a72.61 72.61 0 0 0-8 6.5c-1.45 1.35-2.12 3.016-2 5-1.89-.203-3.39.463-4.5 2-.92 3.438-2.59 6.438-5 9a8.394 8.394 0 0 0-.5 4 29.278 29.278 0 0 1-2 7c-1.5 1.178-2.5 2.845-3 5a65.02 65.02 0 0 0-1 16c-2.94.48-5.61 1.48-8 3a626.403 626.403 0 0 0-33 10.5c-.556.383-.89.883-1 1.5l-9 2a166.537 166.537 0 0 0-20.5 4c-2.27-1.19-4.77-2.523-7.5-4 .359-2.266-.308-4.099-2-5.5l2-1c-1.716-2.724-4.382-3.89-8-3.5a19.372 19.372 0 0 1-1 8c2.047 1.515 4.38 2.35 7 2.5-1.723.523-3.056 1.523-4 3 1.236 1.856 1.236 3.69 0 5.5a126.602 126.602 0 0 1-12 4 462.937 462.937 0 0 0-6-4 114.595 114.595 0 0 1-6-10.5c-3.201-.879-5.868-2.545-8-5a65.772 65.772 0 0 1-17-5.5c-.886-.825-1.22-1.825-1-3-2.884-1.197-5.551-2.864-8-5-1.196.346-1.196.846 0 1.5a31.6 31.6 0 0 1-8-.5 137.146 137.146 0 0 1-9.5-10c-2.041.923-4.208 1.256-6.5 1-.061-2.092-1.061-3.592-3-4.5a337.965 337.965 0 0 0-19-5.5v-3c-3.321-.71-5.988-2.544-8-5.5l-7-3.5c-5.04-2.344-10.374-3.677-16-4-3.275-2.347-6.275-5.18-9-8.5a52.778 52.778 0 0 1-15-5.5c-2.918-3.319-6.585-5.319-11-6 .38-2.442-.286-3.109-2-2a66.1 66.1 0 0 0-15-5 4.934 4.934 0 0 0-.5-3c-5.273-3.549-11.106-5.215-17.5-5 .13-.876-.202-1.543-1-2a87.45 87.45 0 0 1-11-6 19.048 19.048 0 0 0-6-1c-2.985-.826-5.651-2.159-8-4a6.846 6.846 0 0 0-1-4c-3.661-3.32-7.994-5.488-13-6.5-1.333-.667-1.333-1.333 0-2-7.99-.49-15.322-2.99-22-7.5a51.28 51.28 0 0 0-2-6l-2 1c.008-2.719-1.492-3.386-4.5-2a34.233 34.233 0 0 0-11.5-4c-3.254-1.417-5.754-3.75-7.5-7l-1 1c-2.47-1.938-5.304-3.104-8.5-3.5-.498-1.158-1.331-1.99-2.5-2.5a289.418 289.418 0 0 1-15.5-3c-7.303-5.328-15.303-9.328-24-12a157.284 157.284 0 0 1-6-4.5 8.43 8.43 0 0 0-4-.5c-2.74-3.212-6.072-5.712-10-7.5a33.546 33.546 0 0 0-10-2.5c-2.985-.826-5.651-2.159-8-4-1.874-1.615-3.208-3.615-4-6-2.97-.246-4.303-1.912-4-5a872.491 872.491 0 0 1 32-9.5c6.025-2.38 11.692-5.213 17-8.5h1a763.944 763.944 0 0 1 17-3.5c4.4-1.305 8.4-3.138 12-5.5 9.075-.693 17.408-3.36 25-8a308.848 308.848 0 0 1 23-6 363.03 363.03 0 0 0 36-12 115.45 115.45 0 0 1 11-5c1.714-1.238 3.714-1.905 6-2a70.523 70.523 0 0 0 9-1.5c1.82-.2 3.153-1.034 4-2.5a32.462 32.462 0 0 0 8-.5c9.105-3.42 18.105-6.92 27-10.5a198.932 198.932 0 0 0 19-4.5c2.652-.353 4.652-1.52 6-3.5a330.794 330.794 0 0 0 24-6.5c2.957-.687 5.29-2.187 7-4.5h1c3.663-.452 7.33-.952 11-1.5 4.656-1.706 8.99-3.873 13-6.5h1a38.162 38.162 0 0 1 16-1.5 89.847 89.847 0 0 0 23 10.5z"/><path fill="#dcb55a" d="M532.125 275a59.006 59.006 0 0 0 11 7 71.088 71.088 0 0 1 9-3c-5.593 4.92-11.593 5.253-18 1a11.637 11.637 0 0 1-2-5z"/><path fill="#d4b15f" d="M582.125 285a514.367 514.367 0 0 1 3-4c-4.377-4.693-9.71-6.86-16-6.5a87.018 87.018 0 0 1-16 4.5 76.055 76.055 0 0 1 22-6.5 94.305 94.305 0 0 0 16 9 150.644 150.644 0 0 1-9 3.5z"/><path fill="#e7b84a" d="M810.125 248a8.43 8.43 0 0 1 4 .5c6.61 3.73 13.28 7.064 20 10 2 2.841 2.5 6.007 1.5 9.5-2.5 1.833-4.67 4-6.5 6.5a171.218 171.218 0 0 1-23 9.5c6.1-3.22 12.1-6.72 18-10.5 4.19-2.69 7.52-6.19 10-10.5-8.06-5.025-16.06-10.025-24-15z"/><path fill="#e1b652" d="M549.125 257a43.842 43.842 0 0 1 7 4.5 181.077 181.077 0 0 1-27 8.5c.22 2.164 1.22 3.83 3 5-3.533-.388-5.033-2.388-4.5-6a261.934 261.934 0 0 0 20.5-6.5c.906-1.699 1.239-3.533 1-5.5z"/><path fill="#ddb558" d="M810.125 248c-1.81-1.322-3.81-1.822-6-1.5-3.2 3.371-6.54 6.538-10 9.5 1.92-3.424 4.42-6.424 7.5-9 .48-.948.65-1.948.5-3 3.76-.726 6.43.607 8 4z"/><path fill="#d7b35d" d="M540.125 247a6708.16 6708.16 0 0 0 9 10c-4.395-2.062-7.395-5.396-9-10z"/><path fill="#d2ab4e" d="M739.125 245c3.45-.744 5.12.59 5 4-5.028 2.338-10.361 3.672-16 4a323.842 323.842 0 0 1 14-5.5c-1.442-.377-2.442-1.21-3-2.5z"/><path fill="#d5ae55" d="M688.125 235a117.002 117.002 0 0 1-14 6.5 204.243 204.243 0 0 1-23 5.5 297.696 297.696 0 0 1 26-9 106.481 106.481 0 0 0 11-3z"/><path fill="#d2ad54" d="M731.125 240c-2.382-1.546-5.05-2.213-8-2 3.22-2.72 5.888-2.053 8 2z"/><path fill="#d9b053" d="M617.125 208c-5.23 4.374-11.23 7.541-18 9.5-12.195 11.96-10.028 20.46 6.5 25.5a248.768 248.768 0 0 0 15.5-3 573.708 573.708 0 0 1-18.5 7c-7.02-3.867-11.52-9.7-13.5-17.5 1.383-5.394 4.383-9.727 9-13a97.658 97.658 0 0 1 19-8.5z"/><path fill="#cfa954" d="M700.125 225c4.659-.485 5.992 1.348 4 5.5a48.785 48.785 0 0 1-16 4.5 1441.3 1441.3 0 0 0 15-5.5l1-1c-1.593-.949-2.926-2.115-4-3.5z"/><path fill="#d9b35a" d="M544.125 218c-2.144 3.611-4.31 7.278-6.5 11-1.051 6.294-.217 12.294 2.5 18-1.636-1.249-2.803-2.916-3.5-5-1.696-8.364-.196-16.03 4.5-23 .825-.886 1.825-1.219 3-1z"/><path fill="#1c1004" d="M700.125 225c1.074 1.385 2.407 2.551 4 3.5l-1 1a1441.3 1441.3 0 0 1-15 5.5 106.481 106.481 0 0 1-11 3c.622-1.835 1.956-3.002 4-3.5a161.532 161.532 0 0 0 18.5-5.5c.688-.832.52-1.498-.5-2a3388.84 3388.84 0 0 1-10-6c-4.308.842-8.308 2.342-12 4.5a61.981 61.981 0 0 0-13 2c-1.307 2.324-3.307 3.657-6 4-3.317.498-6.65.665-10 .5a855.12 855.12 0 0 1 31-11 62.62 62.62 0 0 0 10.5-3c3.132 2.98 6.632 5.313 10.5 7z"/><path fill="#e7bb54" d="M700.125 225c-3.868-1.687-7.368-4.02-10.5-7a62.62 62.62 0 0 1-10.5 3c3.107-2.332 6.607-3.999 10.5-5 1.812-.007 3.312.66 4.5 2a22.67 22.67 0 0 0 6 7z"/><path fill="#d6b056" d="M570.125 201a116.223 116.223 0 0 0-24 16 51.569 51.569 0 0 0 1-7c5.694-.512 10.694-2.679 15-6.5a37.914 37.914 0 0 1 8-2.5z"/><path fill="#ceaa56" d="M693.125 196a1578.27 1578.27 0 0 0-42 4.5c-5.343.747-10.343 2.247-15 4.5a76.758 76.758 0 0 1-19 3c9.918-3.899 20.25-6.732 31-8.5a282.96 282.96 0 0 1 45-3.5z"/><path fill="#f2c046" d="M671.125 179a309.933 309.933 0 0 0 16 5.5c3.102 3.585 7.102 5.418 12 5.5 1.238 2.666 1.238 5.332 0 8l-2-1a23.663 23.663 0 0 1-6 2.5 305.482 305.482 0 0 0-55 5.5c4.657-2.253 9.657-3.753 15-4.5a1578.27 1578.27 0 0 1 42-4.5 71.254 71.254 0 0 1 4-2l-19-9.5c-2.766-1.37-5.1-3.204-7-5.5z"/><path fill="#e4bb5a" d="M610.125 188a696.75 696.75 0 0 0-40 13 225.28 225.28 0 0 1 18-8.5 358.496 358.496 0 0 1 22-4.5z"/><path fill="#281906" d="M659.125 180c-8.373 2.394-17.04 3.727-26 4l5-2h1a512.889 512.889 0 0 1 20-2z"/><path fill="#070301" d="M671.125 179c1.9 2.296 4.234 4.13 7 5.5l19 9.5a71.254 71.254 0 0 0-4 2 282.96 282.96 0 0 0-45 3.5c-10.75 1.768-21.082 4.601-31 8.5a97.658 97.658 0 0 0-19 8.5c-4.617 3.273-7.617 7.606-9 13 1.98 7.8 6.48 13.633 13.5 17.5a573.708 573.708 0 0 0 18.5-7l27-8c3.35.165 6.683-.002 10-.5 2.693-.343 4.693-1.676 6-4a61.981 61.981 0 0 1 13-2c3.692-2.158 7.692-3.658 12-4.5a3388.84 3388.84 0 0 0 10 6c1.02.502 1.188 1.168.5 2a161.532 161.532 0 0 1-18.5 5.5c-2.044.498-3.378 1.665-4 3.5a297.696 297.696 0 0 0-26 9h-1a233.42 233.42 0 0 0-23 8h-1a15.438 15.438 0 0 0-7 3c1.077 1.205 2.41 1.872 4 2 4.332 2.833 8.999 5.166 14 7a322.568 322.568 0 0 0 27-10 319.096 319.096 0 0 0 33-11 274.242 274.242 0 0 0 25-8h1c2.95-.213 5.618.454 8 2 2.129 2.45 4.796 4.117 8 5 .558 1.29 1.558 2.123 3 2.5a323.842 323.842 0 0 0-14 5.5 297.902 297.902 0 0 0-32 10h-1a284.542 284.542 0 0 0-18 6c-6.092 1.553-11.758 3.887-17 7 4.303 2.464 8.969 3.797 14 4 6.27 2.721 12.938 4.054 20 4 10.826 1.16 21.826 1.326 33 .5 1.882-.198 3.548-.698 5-1.5 8.783-.622 17.12-2.622 25-6 6.3-.986 11.96-3.32 17-7 7.72-3.192 14.39-7.859 20-14 3.46-2.962 6.8-6.129 10-9.5 2.19-.322 4.19.178 6 1.5 7.94 4.975 15.94 9.975 24 15-2.48 4.31-5.81 7.81-10 10.5-5.9 3.78-11.9 7.28-18 10.5a1135.465 1135.465 0 0 1-35 13c-2.06.017-4.06.35-6 1a299.09 299.09 0 0 1-15 3c-6.19.643-12.19 1.643-18 3-41.541 5.218-82.041.884-121.5-13a224.101 224.101 0 0 0-12.5 5 88.068 88.068 0 0 0-16.5 5 27.648 27.648 0 0 1-4.5-2 68.464 68.464 0 0 0-9-7c-.086-.996.248-1.829 1-2.5a43.037 43.037 0 0 1 13-4.5 150.644 150.644 0 0 0 9-3.5 94.305 94.305 0 0 1-16-9 76.055 76.055 0 0 0-22 6.5h-1a71.088 71.088 0 0 0-9 3 59.006 59.006 0 0 1-11-7c-1.78-1.17-2.78-2.836-3-5a181.077 181.077 0 0 0 27-8.5 43.842 43.842 0 0 0-7-4.5 6708.16 6708.16 0 0 1-9-10c-2.717-5.706-3.551-11.706-2.5-18 2.19-3.722 4.356-7.389 6.5-11l2-1a116.223 116.223 0 0 1 24-16 696.75 696.75 0 0 1 40-13h1a257.567 257.567 0 0 1 22-4c8.96-.273 17.627-1.606 26-4a73.314 73.314 0 0 1 12-1z"/><path fill="#9e7d3a" d="M732.125 283c-1.452.802-3.118 1.302-5 1.5-11.174.826-22.174.66-33-.5a523.98 523.98 0 0 0 38-1z"/><path fill="#edbf52" d="M757.125 277c-7.88 3.378-16.217 5.378-25 6a523.98 523.98 0 0 1-38 1v-1a5972.356 5972.356 0 0 0 51-3.5 54.8 54.8 0 0 1 12-2.5z"/><path fill="#cca755" d="M674.125 280a106.103 106.103 0 0 1 20 3v1c-7.062.054-13.73-1.279-20-4z"/><path fill="#d6b36a" d="M677.125 269c-3.08 2.045-6.412 3.878-10 5.5-.837 1.011-1.17 2.178-1 3.5h5c1.21.432 2.21 1.1 3 2-5.031-.203-9.697-1.536-14-4 5.242-3.113 10.908-5.447 17-7z"/><path fill="#d6af59" d="M774.125 270c-5.04 3.68-10.7 6.014-17 7a263.34 263.34 0 0 0 13-6.5 8.43 8.43 0 0 1 4-.5z"/><path fill="#e3b64f" d="M695.125 263c-.453.958-1.12 1.792-2 2.5-8.94 2.252-17.274 5.752-25 10.5a44.093 44.093 0 0 1 3 2h-5c-.17-1.322.163-2.489 1-3.5 3.588-1.622 6.92-3.455 10-5.5a284.542 284.542 0 0 1 18-6z"/><path fill="#d1ac56" d="M728.125 253a155.502 155.502 0 0 1-32 10 297.902 297.902 0 0 1 32-10z"/><path fill="#e7bb57" d="M664.125 257a322.568 322.568 0 0 1-27 10c-5.001-1.834-9.668-4.167-14-7a100.17 100.17 0 0 1 13 4 221.79 221.79 0 0 0 17-5.5c3.67-.548 7.337-1.048 11-1.5z"/><path fill="#cfae6c" d="M626.125 255c-1.78 1.17-2.78 2.836-3 5-1.59-.128-2.923-.795-4-2a15.438 15.438 0 0 1 7-3z"/><path fill="#d6ad54" d="M650.125 247c-.453.958-1.12 1.792-2 2.5a45.435 45.435 0 0 0-10 4c-3.67.548-7.337 1.048-11 1.5a233.42 233.42 0 0 1 23-8z"/><path fill="#ecbd50" d="M697.125 246a319.096 319.096 0 0 1-33 11c3.894-6.713 9.56-8.88 17-6.5a7.293 7.293 0 0 1 3-2c4.37-.737 8.704-1.57 13-2.5z"/><path fill="#d9b25c" d="M722.125 238a274.242 274.242 0 0 1-25 8c.558-1.29 1.558-2.123 3-2.5a265.922 265.922 0 0 1 22-5.5z"/><path fill="#edbe51" d="M679.125 221a855.12 855.12 0 0 0-31 11l-27 8c1.773-1.392 3.773-2.559 6-3.5 8.862-1.395 16.862-4.728 24-10a672.502 672.502 0 0 0 14-4c4.684-.435 9.35-.935 14-1.5z"/><path fill="#d7b259" d="m638.125 182-5 2a257.567 257.567 0 0 0-22 4c2.424-1.483 5.09-2.65 8-3.5a191.775 191.775 0 0 1 19-2.5z"/><path fill="#dab45d" d="M671.125 179a73.314 73.314 0 0 0-12 1 512.889 512.889 0 0 0-20 2c.418-.722 1.084-1.222 2-1.5 4.71-.375 9.377-1.042 14-2 5.516-.817 10.85-.65 16 .5z"/><path fill="#dbb65d" d="M568.125 292a68.464 68.464 0 0 1 9 7 26.714 26.714 0 0 1-8-4 5.576 5.576 0 0 1-1-3z"/><path fill="#dbb151" d="M806.125 284a47.141 47.141 0 0 1-6 5.5c-9.43 3.875-19.1 6.375-29 7.5 11.66-4.11 23.32-8.445 35-13z"/><path fill="#e9bd52" d="M732.125 304c6.32.1 12.32-.9 18-3a299.09 299.09 0 0 0 15-3c-5.47 3.216-11.47 5.383-18 6.5a414.91 414.91 0 0 1-84 2 164.968 164.968 0 0 0-31-5 104.902 104.902 0 0 1-20.5-7.5 36.076 36.076 0 0 1-13.5 2c4.034-1.759 8.2-3.425 12.5-5 39.459 13.884 79.959 18.218 121.5 13z"/><path fill="#b5cf7b" d="M1311.125 299c3.72-1.905 7.72-3.239 12-4 7.73-.699 15.06-2.366 22-5v19c-16.87.018-33.87-.315-51-1a560.31 560.31 0 0 1 17-9z"/><path fill="#e2ba5c" d="M598.125 296c-.97 1.13-2.136 2.13-3.5 3a135.146 135.146 0 0 0-13 3c-2.352.086-3.852-.914-4.5-3a27.648 27.648 0 0 0 4.5 2 88.068 88.068 0 0 1 16.5-5z"/><path fill="#997b3a" d="M750.125 301c-5.68 2.1-11.68 3.1-18 3a144.893 144.893 0 0 1 18-3z"/><path fill="#fef4c6" d="M1027.125 300c-7.53 3.554-15.53 5.888-24 7a102.448 102.448 0 0 1 18-6c1.94-.65 3.94-.983 6-1z"/><path fill="#efefe9" d="M1028.125 297c7.5 1.652 10.5 6.32 9 14h-47a54.456 54.456 0 0 0 11-4h2c8.47-1.112 16.47-3.446 24-7 .61-.89.94-1.89 1-3z"/><path fill="#f6e6a9" d="M1001.125 307a54.456 54.456 0 0 1-11 4h-4v-1a299.09 299.09 0 0 0 15-3z"/><path fill="#f0c14e" d="M1022.125 299c-.33.667-.67 1.333-1 2a102.448 102.448 0 0 0-18 6h-2a299.09 299.09 0 0 1-15 3h-161c53.83-.833 107.83-1.333 162-1.5-.33-.333-.67-.667-1-1 3.46.093 6.46-.907 9-3a370.58 370.58 0 0 0 27-5.5z"/><path fill="#b5cb8a" d="M1347.125 311c-23.51.331-46.84-.002-70-1a504.912 504.912 0 0 1 34-11 560.31 560.31 0 0 0-17 9c17.13.685 34.13 1.018 51 1v-19c-6.94 2.634-14.27 4.301-22 5a169.225 169.225 0 0 1 24-8v24z"/><path fill="#d5b058" d="M825.125 310h161v1c-53-.167-106 0-159 .5-13.77 2.883-25.44 9.383-35 19.5-.12-1.984.55-3.65 2-5a72.61 72.61 0 0 1 8-6.5c-.33-.333-.67-.667-1-1a344.528 344.528 0 0 0 24-8.5z"/><path fill="#303d1d" d="M1277.125 310c23.16.998 46.49 1.331 70 1a890.673 890.673 0 0 1-73 .5c.74-1.039 1.74-1.539 3-1.5z"/><path fill="#b2cd78" d="M40.125 369h-1c-3.108-3.392-6.775-6.059-11-8a461.333 461.333 0 0 1-22-9.5c-2.536-2.965-3.87-6.465-4-10.5a104.18 104.18 0 0 0 2-12c-1.054-2.193-.72-3.693 1-4.5-.837-1.01-1.17-2.178-1-3.5 2.92.354 5.254-.646 7-3 1.45 2.641 2.117 2.308 2-1-.21-1.494-.876-2.66-2-3.5 1.1-1.023 2.433-1.523 4-1.5a234.332 234.332 0 0 0 16 6c.708 2.65.708 5.15 0 7.5.737 2.8 1.57 2.966 2.5.5a7.293 7.293 0 0 0 2 3c1.756-1.048 3.59-1.048 5.5 0a18.184 18.184 0 0 0 3.5-2c13.22 3.656 24.72 9.49 34.5 17.5-1.36 1.204-2.36 2.704-3 4.5-3.305 1.371-5.971 3.537-8 6.5a29.812 29.812 0 0 1-5-.5 4.934 4.934 0 0 1-.5 3 10.756 10.756 0 0 0-2.5-3c1.499-1.404 1.166-2.07-1-2-1.147.318-1.981.984-2.5 2l-1-1c-1.475 3.655-2.81 3.322-4-1l-1 3-1-1c-.833 1.5-2 2.667-3.5 3.5a29.982 29.982 0 0 1 3 8.5 32.462 32.462 0 0 0-8 .5c2.432 1.087 2.098 1.587-1 1.5z"/><path fill="#e8ba4c" d="M486.125 302c6.394-.215 12.227 1.451 17.5 5 .483.948.649 1.948.5 3a66.1 66.1 0 0 1 15 5c1.714-1.109 2.38-.442 2 2 4.415.681 8.082 2.681 11 6a52.778 52.778 0 0 0 15 5.5c2.725 3.32 5.725 6.153 9 8.5a1712.631 1712.631 0 0 1-70-35z"/><path fill="#e2bb5d" d="M792.125 331a186.109 186.109 0 0 0-10 15 8.394 8.394 0 0 1 .5-4c2.41-2.562 4.08-5.562 5-9 1.11-1.537 2.61-2.203 4.5-2z"/><path fill="#ebbc49" d="M556.125 337c5.626.323 10.96 1.656 16 4l7 3.5c2.012 2.956 4.679 4.79 8 5.5v3a226.561 226.561 0 0 1-31-16z"/><path fill="#dbdbdb" d="M1498.125 344a56294.698 56294.698 0 0 0-671 0c.42-.722 1.08-1.222 2-1.5 222-.667 444-.667 666 0 1.24.232 2.24.732 3 1.5z"/><path fill="#fdfdfd" d="M1498.125 344c9.91 2.743 16.41 9.076 19.5 19 .67 131.33.67 262.67 0 394-3.41 12.57-11.57 19.57-24.5 21h-107c.33-17.51 0-34.84-1-52-1.63-8.47-6.63-13.97-15-16.5-57.67-.67-115.33-.67-173 0-6.5 2.5-11 7-13.5 13.5-.17 18.5-.67 36.84-1.5 55h-61c.33-17.51 0-34.84-1-52-2.45-8.28-7.78-13.78-16-16.5-56.67-.67-113.33-.67-170 0-7.26 2.92-12.09 8.09-14.5 15.5-.5 18-.67 36-.5 54-29.34.17-58.67 0-88-.5-11.94-3.61-19.44-11.44-22.5-23.5-.67-130.67-.67-261.33 0-392 3.01-9.51 9.18-15.843 18.5-19 223.67-1.333 447.33-1.333 671 0z"/><path fill="#a4b67e" d="M1.125 298c-.134 1.792.199 3.458 1 5v38c.13 4.035 1.464 7.535 4 10.5a461.333 461.333 0 0 0 22 9.5c4.225 1.941 7.892 4.608 11 8a104117.38 104117.38 0 0 1-38-18c-1.327-17.829-1.327-35.495 0-53z"/><path fill="#b3cd7b" d="m2.125 303 6 2 134 67c-4.005.331-7.338-1.003-10-4a3.647 3.647 0 0 0-1.5 1c-4.196-2.432-8.196-4.432-12-6l-2 4-1-1a64.501 64.501 0 0 0-6.5 4c2.49 1.041 2.49 1.874 0 2.5 4.288 2.232 4.955 5.232 2 9 2.217 4.632 3.55 4.466 4-.5 4.419.823 5.086 2.99 2 6.5l1 1a4.457 4.457 0 0 0-2 1.5c1.258-.516 2.258.15 3 2a4.457 4.457 0 0 1-1.5 2c-2.874-2.39-4.374-2.058-4.5 1 5.19-.313 6.357 1.687 3.5 6l-1-2a8.43 8.43 0 0 0-.5 4c1.29-.237 2.29.096 3 1l-11-2a1039.332 1039.332 0 0 1-67-33c3.098.087 3.432-.413 1-1.5a32.462 32.462 0 0 1 8-.5 29.982 29.982 0 0 0-3-8.5c1.5-.833 2.667-2 3.5-3.5l1 1 1-3c1.19 4.322 2.525 4.655 4 1l1 1c.519-1.016 1.353-1.682 2.5-2 2.166-.07 2.499.596 1 2a10.756 10.756 0 0 1 2.5 3 4.934 4.934 0 0 0 .5-3c1.726.315 3.393.481 5 .5 2.029-2.963 4.695-5.129 8-6.5.64-1.796 1.64-3.296 3-4.5-9.78-8.01-21.28-13.844-34.5-17.5a18.184 18.184 0 0 1-3.5 2c-1.91-1.048-3.744-1.048-5.5 0a7.293 7.293 0 0 1-2-3c-.93 2.466-1.763 2.3-2.5-.5.708-2.35.708-4.85 0-7.5a234.332 234.332 0 0 1-16-6c-1.567-.023-2.9.477-4 1.5 1.124.84 1.79 2.006 2 3.5.117 3.308-.55 3.641-2 1-1.746 2.354-4.08 3.354-7 3-.17 1.322.163 2.49 1 3.5-1.72.807-2.054 2.307-1 4.5a104.18 104.18 0 0 1-2 12v-38z"/><path fill="#e7b94a" d="M587.125 353a337.965 337.965 0 0 1 19 5.5c1.939.908 2.939 2.408 3 4.5 2.292.256 4.459-.077 6.5-1a137.146 137.146 0 0 0 9.5 10 504.852 504.852 0 0 1-38-19z"/><path fill="#cca956" d="M780.125 353a206.726 206.726 0 0 0-3 22 33.657 33.657 0 0 1-9 2c2.39-1.52 5.06-2.52 8-3a65.02 65.02 0 0 1 1-16c.5-2.155 1.5-3.822 3-5z"/><path fill="#e8f2c8" d="M8.125 305a100.78 100.78 0 0 1 13.5 4 6.293 6.293 0 0 0 3-1c2.3 3.895 4.3 3.562 6-1a25.547 25.547 0 0 1 5.5 9l2-1a55.738 55.738 0 0 0 6 6.5c4.129 1.731 8.296 1.898 12.5.5 1.733 2.102 3.733 2.435 6 1 .5 1.167 1.333 2 2.5 2.5l-3 3c4.71.88 8.377 3.213 11 7 10.17 3.921 19.838 8.588 29 14l5 1a29.85 29.85 0 0 0 9 6c3.595.561 6.928 1.728 10 3.5a4.457 4.457 0 0 0 1.5-2c.374.916.874 1.75 1.5 2.5a131.504 131.504 0 0 1 27 16c5.537 1.357 10.537 3.857 15 7.5a3.647 3.647 0 0 0 1.5-1 303.455 303.455 0 0 0 21 10c1.796-.413 3.463-.413 5 0l1 3c7.079 5.371 14.912 9.538 23.5 12.5a3321.666 3321.666 0 0 1 17 10.5 871640.02 871640.02 0 0 0-98-47l-134-67z"/><path fill="#fdfbe6" d="M777.125 375v15h-8c.81-1.337 1.98-2.337 3.5-3 .7-1.574.37-2.907-1-4-.33.667-.67 1.333-1 2-3.63-1.85-7.46-2.35-11.5-1.5l-7 1a2100.577 2100.577 0 0 1-34 12.5c.41 2.776-.422 3.443-2.5 2a2261.199 2261.199 0 0 1-23.5 5l3-2c.709-.904 1.709-1.237 3-1 12.858-2.607 25.19-6.607 37-12a483.245 483.245 0 0 0 33-12c3.1-.256 6.1-.922 9-2z"/><path fill="#f4bf40" d="M725.125 391a370.474 370.474 0 0 0-13 5.5c-5.281.04-9.947 1.54-14 4.5-1.291-.237-2.291.096-3 1a80.318 80.318 0 0 1-19 4 409.027 409.027 0 0 0-3-6 462.937 462.937 0 0 1 6 4 126.602 126.602 0 0 0 12-4c1.236-1.81 1.236-3.644 0-5.5.944-1.477 2.277-2.477 4-3-2.62-.15-4.953-.985-7-2.5a19.372 19.372 0 0 0 1-8c3.618-.39 6.284.776 8 3.5l-2 1c1.692 1.401 2.359 3.234 2 5.5 2.73 1.477 5.23 2.81 7.5 4a166.537 166.537 0 0 1 20.5-4z"/><path fill="#eaba47" d="M673.125 400a98.521 98.521 0 0 0-9-7.5c-13.061-6.862-26.061-13.696-39-20.5a31.6 31.6 0 0 0 8 .5c-1.196-.654-1.196-1.154 0-1.5 2.449 2.136 5.116 3.803 8 5-.22 1.175.114 2.175 1 3a65.772 65.772 0 0 0 17 5.5c2.132 2.455 4.799 4.121 8 5a114.595 114.595 0 0 0 6 10.5z"/><path fill="#f1d483" d="M768.125 377a483.245 483.245 0 0 1-33 12h-1c.11-.617.444-1.117 1-1.5a626.403 626.403 0 0 1 33-10.5z"/><path fill="#91a17a" d="M2.125 379a484.723 484.723 0 0 0-1 44c-1.326-14.839-1.326-29.839 0-45 .607.124.94.457 1 1z"/><path fill="#fdeeb8" d="M734.125 389h1c-11.81 5.393-24.142 9.393-37 12 4.053-2.96 8.719-4.46 14-4.5a370.474 370.474 0 0 1 13-5.5l9-2z"/><path fill="#b0c880" d="M2.125 379a511.013 511.013 0 0 1 47 23c-6.33-1.08-12.162-3.414-17.5-7a9.258 9.258 0 0 0-2.5 2 34.833 34.833 0 0 1-7-7c-2.98-2.265-5.813-2.598-8.5-1-1.671-4.408-4.505-5.24-8.5-2.5-.44 4.56-.44 9.393 0 14.5-1.826 1.85-2.16 3.85-1 6-1.71 4.88-2.21 9.88-1.5 15 3.184 1.504 6.35 3.004 9.5 4.5 2.118 1.05 3.784 2.55 5 4.5a89.655 89.655 0 0 1-16-8 484.723 484.723 0 0 1 1-44z"/><path fill="#f8be30" d="M775.125 742c-4.72 2.28-9.72 3.78-15 4.5-1.82.66-3.16 1.83-4 3.5h-1a1516.197 1516.197 0 0 0-48 12.5 81.277 81.277 0 0 0-11 5c-.752.67-1.086 1.5-1 2.5-3.635.61-7.302.95-11 1-.167-115.67 0-231.33.5-347a80.283 80.283 0 0 1 13.5-4.5c.556-.383.889-.883 1-1.5 11.327-1.882 22.16-5.549 32.5-11a1387.5 1387.5 0 0 0 36.5-12c2.09.182 4.09-.152 6-1 1 116 1.33 232 1 348z"/><path fill="#f9e8ad" d="m695.125 402-3 2a59.874 59.874 0 0 1-15 3c-.667 0-1-.333-1-1a80.318 80.318 0 0 0 19-4z"/><path fill="#fcfdf4" d="M769.125 390c-.08 1.25-.74 2.083-2 2.5a410.452 410.452 0 0 1-43 12c-9.9 5.487-20.566 9.153-32 11l-11 5.5c.237-1.29-.096-2.29-1-3a34.48 34.48 0 0 0-3-11 59.874 59.874 0 0 0 15-3c7.81-1.618 15.643-3.285 23.5-5 2.078 1.443 2.91.776 2.5-2a2100.577 2100.577 0 0 0 34-12.5l7-1c4.04-.85 7.87-.35 11.5 1.5.33-.667.67-1.333 1-2 1.37 1.093 1.7 2.426 1 4-1.52.663-2.69 1.663-3.5 3z"/><path fill="#fef5c8" d="M769.125 390h7c-2.67 1.333-5.33 2.667-8 4a1292.473 1292.473 0 0 0-86 28c-.667 0-1-.333-1-1l11-5.5c11.434-1.847 22.1-5.513 32-11a410.452 410.452 0 0 0 43-12c1.26-.417 1.92-1.25 2-2.5z"/><path fill="#adc186" d="M49.125 402a956.777 956.777 0 0 1 55 27 52.56 52.56 0 0 1-7-1.5c-10.254-6.626-21.254-11.959-33-16a189.71 189.71 0 0 0-14-7c-.752-.67-1.086-1.504-1-2.5z"/><path fill="#eaeed5" d="M633.125 421c.11.617.444 1.117 1 1.5a11.532 11.532 0 0 0-3.5 4.5 7.248 7.248 0 0 0-2.5-2l-5 3.5 1 1c-2.858 3.79-2.025 5.29 2.5 4.5a12.93 12.93 0 0 0 .5-5 45.824 45.824 0 0 1 9 2 7.93 7.93 0 0 0 3.5-1c.667 1 .667 2 0 3l-1-1c.982 3.41-.351 5.742-4 7l-1-1c-4.295 5.395-9.795 7.23-16.5 5.5-1.141-.74-1.141-1.575 0-2.5a25.513 25.513 0 0 1-4.5-4c-.492 1.05-.326 2.05.5 3-3.176 1.497-5.842.83-8-2-2.523 1.571-4.523 1.071-6-1.5-4.723-.529-9.223.304-13.5 2.5a14.093 14.093 0 0 0-3.5-1 762.006 762.006 0 0 1 51-17z"/><path fill="#211606" d="M777.125 390c2.22 3.131 3.88 6.631 5 10.5-.96 4.53-1.29 9.196-1 14 .67.333 1.33.667 2 1-2.19 3.125-2.52 6.458-1 10-.41.945-1.07 1.612-2 2 .33.333.67.667 1 1a736.251 736.251 0 0 0-2 61.5c.17 14.33.33 28.67.5 43 .2 3.92.7 7.75 1.5 11.5-.89 55.58-.89 111.58 0 168-.69 9.29-1.36 18.62-2 28 1.19 2.14.52 3.64-2 4.5-1.95.66-3.95.99-6 1 1.71-1.24 3.71-1.91 6-2V390z"/><path fill="#eaf0cf" d="M650.125 428c.284 3.277-.05 6.443-1 9.5-17.21 5.57-34.21 11.4-51 17.5-6.1 1.36-12.1 3.02-18 5 1.184-1.19 1.184-2.35 0-3.5 2.667-.67 2.667-1.33 0-2 1.1-2.29.268-3.79-2.5-4.5-1 .33-2 .67-3 1-.87-.61-1.37-1.44-1.5-2.5 2.095-2.45 3.095-5.285 3-8.5 1.714-1.238 3.714-1.905 6-2 1.195.178 2.362.511 3.5 1 4.277-2.196 8.777-3.029 13.5-2.5 1.477 2.571 3.477 3.071 6 1.5 2.158 2.83 4.824 3.497 8 2-.826-.95-.992-1.95-.5-3a25.513 25.513 0 0 0 4.5 4c-1.141.925-1.141 1.76 0 2.5 6.705 1.73 12.205-.105 16.5-5.5l1 1c3.649-1.258 4.982-3.59 4-7l1 1c.667-1 .667-2 0-3a7.93 7.93 0 0 1-3.5 1 45.824 45.824 0 0 0-9-2 12.93 12.93 0 0 1-.5 5c-4.525.79-5.358-.71-2.5-4.5l-1-1 5-3.5a7.248 7.248 0 0 1 2.5 2 11.532 11.532 0 0 1 3.5-4.5c-.556-.383-.89-.883-1-1.5a82.399 82.399 0 0 1 9-3.5c1.333-.667 2.667-.667 4 0 2.222 3.168 3.556 6.668 4 10.5z"/><path fill="#b3cb81" d="M216.125 456a5450.89 5450.89 0 0 1-109-54l11 2c1.51 1.228 3.01 1.228 4.5 0l4 2a16.661 16.661 0 0 1 4-4c.414.457.914.791 1.5 1a14.587 14.587 0 0 1 4-6c1.282 2.674.949 5.174-1 7.5a34.307 34.307 0 0 0 3 7.5c.498-1.103.83-2.103 1-3 1 .333 1.667 1 2 2-2.96 3.59-2.293 4.756 2 3.5l-1 1c1 .667 2 .667 3 0l-1-1a15.256 15.256 0 0 0 1.5-4.5 20.431 20.431 0 0 0 1.5 5.5l-2 2a20.64 20.64 0 0 0 6 2c4.63 5.301 10.296 8.968 17 11 6.865-.443 12.532 1.89 17 7 1.049.492 2.049.326 3-.5a14.815 14.815 0 0 0 5.5 3l2.5-3c1.21.774 1.21 1.607 0 2.5 1.73 1.852 2.896 1.686 3.5-.5 2.238 2.9 5.07 5.066 8.5 6.5a6.56 6.56 0 0 0 3 3c-.667.33-1.333.67-2 1 3.159 1.33 5.492 3.49 7 6.5z"/><path fill="#a8bd7f" d="M25.125 435a49.572 49.572 0 0 1 13 3.5c4.487 3.577 9.487 6.077 15 7.5v3a274.106 274.106 0 0 1-28-14z"/><path fill="#b2ce7a" d="M49.125 402c-.086.996.248 1.83 1 2.5a189.71 189.71 0 0 1 14 7c11.746 4.041 22.746 9.374 33 16a52.56 52.56 0 0 0 7 1.5c42 20.33 84 40.67 126 61a427.793 427.793 0 0 0 43 21 237.443 237.443 0 0 0 26 13 784.797 784.797 0 0 0 43 21 2457.73 2457.73 0 0 0 59 30c.507 1.36 1.507 2.36 3 3 12.294 5.82 25.294 7.65 39 5.5 5.337-.72 10.337-2.22 15-4.5-1.65 1.67-2.982 3.67-4 6a3.627 3.627 0 0 1-1.5-1c-4.996 4.67-4.163 7.67 2.5 9 .417 2.84 1.417 5.51 3 8 3.54-2.62 7.04-2.62 10.5 0 4.955-.1 10.122-.1 15.5 0a4.939 4.939 0 0 1-.5 3c-1.183-1.23-2.35-1.23-3.5 0a39.36 39.36 0 0 1 8.5 4c2.234-1.21 3.9-.54 5 2 1.17-1.39 2.67-2.23 4.5-2.5-2.227-.12-4.06-.95-5.5-2.5-1.05 1.02-2.216 1.18-3.5.5 1.5-.83 2.667-2 3.5-3.5a19.27 19.27 0 0 1 3-9c.333.67.667 1.33 1 2a7.32 7.32 0 0 1 2-3 18.61 18.61 0 0 0 6.5 3.5l-2 3c1.718.35 3.385.85 5 1.5 1.56-2.47 3.56-3.13 6-2-1.35 1.52-2.683 2.19-4 2 2.29 2.47 4.457 2.47 6.5 0 1.744.54 3.577.87 5.5 1 1.28-3.03 3.28-4.03 6-3 1.41-.37 2.41-1.2 3-2.5a56.47 56.47 0 0 0 9-1.5c.586.21 1.086.54 1.5 1a14.831 14.831 0 0 1 3.5-3c3.27.7 6.604.7 10 0a848.536 848.536 0 0 1-54 18c-3.858.51-7.691 1.18-11.5 2-1.5-.17-3-.33-4.5-.5.333-.33.667-.67 1-1-1.26-1.11-2.427-1.28-3.5-.5-.691-2.39-1.691-2.39-3 0-3.628-.88-7.461-.88-11.5 0a4.473 4.473 0 0 1-1.5-2c-.991 1.44-2.324 2.44-4 3-1.425.58-3.092.58-5 0l-1.5 1.5c1.333.33 2.667.67 4 1-2.215.17-4.215.84-6 2 3.62 1.82 4.287 4.16 2 7-1.634.49-3.301.66-5 .5-1.034-1.19-2.367-2.02-4-2.5a4.486 4.486 0 0 0 2-1.5 31.425 31.425 0 0 1-6-4.5c1.692-1.4 2.359-3.23 2-5.5 3.956-.55 3.956-1.39 0-2.5 1.735-.65 3.402-.48 5 .5 1.333-1.33 1.333-2.67 0-4-2.693 2.5-4.36 1.83-5-2a4.949 4.949 0 0 0-3 .5c.837 1.01 1.17 2.18 1 3.5h-4c.417-2.58-.25-4.75-2-6.5 1.473-.71 2.14-1.88 2-3.5-2.79.28-5.29-.39-7.5-2a79.336 79.336 0 0 1-6 6c-.5-.17-1-.33-1.5-.5 1.333-.67 1.333-1.33 0-2 2.107-1.26 3.107-3.1 3-5.5-3.426.15-3.76-1.02-1-3.5-2.827-1.47-5.494-.97-8 1.5-1.564-.69-3.231-.52-5 .5 1.333.67 1.333 1.33 0 2 2.87.13 5.205 1.3 7 3.5 1.395-1.31 2.395-.98 3 1-1.333 1-1.333 2 0 3-.637 1.8-1.803 3.14-3.5 4a17.785 17.785 0 0 0-5.5-4.5c1-.33 2-.67 3-1-1.902-1.3-3.902-1.97-6-2 .193 1.65.36 3.48.5 5.5 1.6 1.37 3.433 2.37 5.5 3-6.245 2.34-6.245 4.17 0 5.5-6.746.26-9.58-2.91-8.5-9.5-1.545 1.32-2.711.99-3.5-1 .59-1.3 1.59-2.13 3-2.5-3.112-3.26-6.78-6.76-11-10.5 1.129-2.03.629-2.36-1.5-1-.635-3.6-1.968-4.27-4-2-.333-.67-.667-1.33-1-2-1.84 1.33-2.34 1.17-1.5-.5-2.218-2.16-3.385-4.66-3.5-7.5 1.77 1.92 3.937 2.42 6.5 1.5-4.612-4.47-8.446-4.3-11.5.5-.658-1.61-.158-2.77 1.5-3.5-2.916-.05-3.916-1.22-3-3.5a17.434 17.434 0 0 0-6-3c-1.364-2.52-3.364-4.35-6-5.5a88.108 88.108 0 0 1-18-8.5 27.05 27.05 0 0 0-7-1.5c-1.242-2.66-3.076-3.16-5.5-1.5-1.261-.26-2.261-.93-3-2-.617.95-.451 1.78.5 2.5l-3 1.5c.02-2.1-.313-4.27-1-6.5-1.667-.67-3.333-.67-5 0 2.015 1.56 2.348 3.39 1 5.5-2.214-2.42-3.214-1.76-3 2 2.448-.42 3.78.58 4 3a61.73 61.73 0 0 0-3 7 19.031 19.031 0 0 0-5 3c-2.191-2.24-3.524-4.57-4-7l-3 1.5c.333.33.667.67 1 1-2.667 1-2.667 2 0 3-.667.67-1.333 1.33-2 2 1.45-.26 2.784-.1 4 .5-2.491 1.04-2.491 1.87 0 2.5-2.432 1.09-2.098 1.59 1 1.5.813 2.39 1.146 4.72 1 7-1.894-.55-3.56-1.55-5-3a2361.95 2361.95 0 0 0-15-4 806.387 806.387 0 0 1-59-29c-.011-1.52-.677-2.68-2-3.5a67.358 67.358 0 0 1-12-7c-2.646-.5-5.313-.66-8-.5-2.985-.83-5.651-2.16-8-4 .219-1.18-.114-2.18-1-3a91.89 91.89 0 0 0-10-4 11.45 11.45 0 0 1-2-2.5c-8.344-4-17.011-7.17-26-9.5a139.647 139.647 0 0 1-20-10c.086-1-.248-1.83-1-2.5a504.294 504.294 0 0 1-38-19 31.353 31.353 0 0 0-5-4.5 6.824 6.824 0 0 1 3-1.5c-2.672-.83-5.34-1.67-8-2.5-1.354 1.68-3.021 2.18-5 1.5a106.268 106.268 0 0 0-25-10.5 133.629 133.629 0 0 1-17-8v-3c-5.513-1.423-10.513-3.923-15-7.5a49.572 49.572 0 0 0-13-3.5c-2.985-.826-5.651-2.159-8-4-1.216-1.95-2.882-3.45-5-4.5a4750.748 4750.748 0 0 0-9.5-4.5c-.71-5.12-.21-10.12 1.5-15-1.16-2.15-.826-4.15 1-6-.44-5.107-.44-9.94 0-14.5 3.995-2.74 6.829-1.908 8.5 2.5 2.687-1.598 5.52-1.265 8.5 1a34.833 34.833 0 0 0 7 7 9.258 9.258 0 0 1 2.5-2c5.338 3.586 11.17 5.92 17.5 7z"/><path fill="#e7f2c5" d="M240.125 419c2.427.023 4.76.523 7 1.5a93.09 93.09 0 0 1 13.5 6.5c1.525.388 3.192.388 5 0l4.5 5.5a221.713 221.713 0 0 1 41 21.5 1168.86 1168.86 0 0 1-71-35z"/><path fill="#ecc462" d="M768.125 394v1a1387.5 1387.5 0 0 1-36.5 12c-10.34 5.451-21.173 9.118-32.5 11a58.769 58.769 0 0 0-15.5 5c-.5 64.67-.667 129.33-.5 194h-1V422a1292.473 1292.473 0 0 1 86-28z"/><path fill="#050504" d="M1012.125 455c20.24-2.33 38.91 1.83 56 12.5 10.48 9.46 15.48 21.13 15 35-10.33.82-20.67 1.15-31 1-1.71-11.79-8.38-18.79-20-21-7.08-.88-14.08-.55-21 1-12.42 7.14-13.08 15.14-2 24 16.67 5.33 33.34 10.67 50 16 25.91 12.32 34.41 32.15 25.5 59.5-5.17 11.83-13.67 20.33-25.5 25.5-16.27 5.21-32.93 6.88-50 5-28.73-6.28-43.73-24.11-45-53.5a227.83 227.83 0 0 1 31-2c3.66 22.8 16.99 32.3 40 28.5 14.37-2.68 20.53-11.18 18.5-25.5-4.43-6.47-10.59-10.31-18.5-11.5-15.67-3-30.67-8-45-15-16.12-10.42-22.96-25.25-20.5-44.5 3.81-14.48 12.64-24.65 26.5-30.5 5.41-1.7 10.74-3.2 16-4.5zM1158.125 455c15.48-1.09 30.48 1.08 45 6.5 16.36 8.53 24.69 22.03 25 40.5-10.3 1.09-20.63 1.26-31 .5-2-11.33-8.67-18-20-20-12.75-3.42-22.91.08-30.5 10.5-.83 6.52 1.67 11.35 7.5 14.5 16.94 5.49 33.94 10.82 51 16 27.17 14.49 34.67 35.99 22.5 64.5-8.22 13.2-20.06 21.37-35.5 24.5-12.3 1.51-24.63 1.84-37 1-27.66-5.33-43.33-22-47-50-.06-1.71.61-3.04 2-4 9.65-1.25 19.32-1.92 29-2 5.53 25.11 20.86 34.44 46 28 11.75-4.1 16.25-12.27 13.5-24.5-4.2-6.19-10.03-10.02-17.5-11.5-16.06-2.85-31.4-7.85-46-15-18.22-12.31-24.38-29.14-18.5-50.5 4.9-11.9 13.4-20.06 25.5-24.5 5.37-1.84 10.71-3.34 16-4.5z"/><path fill="#a8bd7f" d="M216.125 456c3.022.3 6.022.8 9 1.5a78.75 78.75 0 0 0 12.5 6.5c1.749.91 2.916 2.24 3.5 4-8.791-3.25-17.125-7.25-25-12z"/><path fill="#d6d6d5" d="M1327.125 458c-22.23-.64-44.23.03-66 2v-3c22.17-.33 44.17 0 66 1z"/><path fill="#050505" d="M1327.125 458c32.08.91 52.25 16.91 60.5 48 3.32 18.99 3.32 37.99 0 57-7.11 29.77-25.94 45.94-56.5 48.5-23.24.83-46.41.66-69.5-.5-.5-50.33-.67-100.67-.5-151 21.77-1.97 43.77-2.64 66-2z"/><path fill="#afc480" d="M70.125 457a106.268 106.268 0 0 1 25 10.5c1.979.68 3.646.18 5-1.5 2.66.83 5.328 1.67 8 2.5a6.824 6.824 0 0 0-3 1.5 31.353 31.353 0 0 1 5 4.5 504.294 504.294 0 0 0 38 19c.752.67 1.086 1.5 1 2.5a1447.442 1447.442 0 0 1-79-39z"/><path fill="#b3cb80" d="M397.125 545a8208.105 8208.105 0 0 1-109-53c-13.904-6.95-27.904-13.95-42-21a18.424 18.424 0 0 1-5-3c5.734 1.41 11.234 2.75 16.5 4 .98-1.56 1.813-3.23 2.5-5a4.473 4.473 0 0 1 1.5 2c1.888-2.42 3.888-2.42 6 0 .333-.33.667-.67 1-1 .973 3.52 2.473 3.85 4.5 1 .506 1.32 1.839 1.99 4 2 .214 3.76-.786 4.42-3 2-1.083.86-1.25 1.86-.5 3 6.87.83 11.536 4.83 14 12 1.41 1.29 2.91 2.45 4.5 3.5a27.16 27.16 0 0 1 10 4.5 6.845 6.845 0 0 0 1.5-3c2.763 3.97 6.596 6.13 11.5 6.5 2.54 3.3 5.707 5.8 9.5 7.5.308-.81.808-1.47 1.5-2 2.044 1.86 4.21 2.52 6.5 2 .333-.67.667-1.33 1-2 .667 1.33 1.333 2.67 2 4 1.699-.91 3.533-1.24 5.5-1a8.43 8.43 0 0 0 .5 4c.333-.33.667-.67 1-1 1.399.73 2.899 1.23 4.5 1.5-1.388.89-1.222 1.39.5 1.5.546-.79 1.213-1.79 2-3 1.41 1.29 2.91 2.45 4.5 3.5-1.035 1.51-.868 3.01.5 4.5.308-.81.808-1.47 1.5-2 2 2.67 4 5.33 6 8 10.775 5.8 21.609 11.47 32.5 17 1.31.63 2.144 1.63 2.5 3z"/><path fill="#0b1003" d="M246.125 471c14.096 7.05 28.096 14.05 42 21-2.847-.28-5.513-.28-8 0a28.718 28.718 0 0 0-5-1.5c.667-.67 1.333-1.33 2-2-2.206-1.81-4.54-2.31-7-1.5a128.572 128.572 0 0 1-8.5-4 3.92 3.92 0 0 0-2 1c-2.808-1.56-4.308-3.56-4.5-6-2.272-2.15-4.94-3.65-8-4.5-.752-.67-1.086-1.5-1-2.5z"/><path fill="#b4cf79" d="M142.125 372a871640.02 871640.02 0 0 1 98 47 1168.86 1168.86 0 0 0 71 35 2619.588 2619.588 0 0 0 73 36 630.696 630.696 0 0 0 29 16c.329 2.53 1.495 3.53 3.5 3l11 3a838.196 838.196 0 0 0 69.5-21.5 260.287 260.287 0 0 1 20-8.5 1988.612 1988.612 0 0 1 57-20c2.286-.09 4.286-.76 6-2 5.9-1.98 11.9-3.64 18-5 16.79-6.1 33.79-11.93 51-17.5.95-3.057 1.284-6.223 1-9.5a582.364 582.364 0 0 1 .5 59 580.007 580.007 0 0 0-31.5 11 380.468 380.468 0 0 0-36 12c-6.861 1.4-13.528 3.4-20 6a1201.19 1201.19 0 0 0-64 22c-7.668 1.56-15.001 3.89-22 7-6 1.67-12 3.33-18 5-5.668 1.17-11.335 2.33-17 3.5-.667.67-1.333 1.33-2 2-6.36.83-12.693.66-19-.5a529.036 529.036 0 0 0-17-8.5 17.653 17.653 0 0 0-7-1.5c-.356-1.37-1.19-2.37-2.5-3a1530.423 1530.423 0 0 1-32.5-17c-2-2.67-4-5.33-6-8a4.473 4.473 0 0 0-1.5 2c-1.368-1.49-1.535-2.99-.5-4.5a36.173 36.173 0 0 1-4.5-3.5c-.787 1.21-1.454 2.21-2 3-1.722-.11-1.888-.61-.5-1.5a15.085 15.085 0 0 1-4.5-1.5c-.333.33-.667.67-1 1a8.43 8.43 0 0 1-.5-4c-1.967-.24-3.801.09-5.5 1-.667-1.33-1.333-2.67-2-4-.333.67-.667 1.33-1 2-2.29.52-4.456-.14-6.5-2a4.473 4.473 0 0 0-1.5 2c-3.793-1.7-6.96-4.2-9.5-7.5-4.904-.37-8.737-2.53-11.5-6.5a6.845 6.845 0 0 1-1.5 3 27.16 27.16 0 0 0-10-4.5 36.173 36.173 0 0 1-4.5-3.5c-2.464-7.17-7.13-11.17-14-12-.75-1.14-.583-2.14.5-3 2.214 2.42 3.214 1.76 3-2-2.161-.01-3.494-.68-4-2-2.027 2.85-3.527 2.52-4.5-1-.333.33-.667.67-1 1-2.112-2.42-4.112-2.42-6 0a4.473 4.473 0 0 0-1.5-2 29.327 29.327 0 0 1-2.5 5c-5.266-1.25-10.766-2.59-16.5-4-.584-1.76-1.751-3.09-3.5-4a78.75 78.75 0 0 1-12.5-6.5 69.14 69.14 0 0 0-9-1.5c-1.508-3.01-3.841-5.17-7-6.5.667-.33 1.333-.67 2-1a6.56 6.56 0 0 1-3-3c-3.43-1.434-6.262-3.6-8.5-6.5-.604 2.186-1.77 2.352-3.5.5 1.21-.893 1.21-1.726 0-2.5l-2.5 3a14.815 14.815 0 0 1-5.5-3c-.951.826-1.951.992-3 .5-4.468-5.11-10.135-7.443-17-7-6.704-2.032-12.37-5.699-17-11a20.64 20.64 0 0 1-6-2l2-2a20.431 20.431 0 0 1-1.5-5.5 15.256 15.256 0 0 1-1.5 4.5l1 1c-1 .667-2 .667-3 0l1-1c-4.293 1.256-4.96.09-2-3.5-.333-1-1-1.667-2-2-.17.897-.502 1.897-1 3a34.307 34.307 0 0 1-3-7.5c1.949-2.326 2.282-4.826 1-7.5a14.587 14.587 0 0 0-4 6 3.647 3.647 0 0 1-1.5-1 16.661 16.661 0 0 0-4 4l-4-2c-1.49 1.228-2.99 1.228-4.5 0-.71-.904-1.71-1.237-3-1a8.43 8.43 0 0 1 .5-4l1 2c2.857-4.313 1.69-6.313-3.5-6 .126-3.058 1.626-3.39 4.5-1a4.457 4.457 0 0 0 1.5-2c-.742-1.85-1.742-2.516-3-2a4.457 4.457 0 0 1 2-1.5l-1-1c3.086-3.51 2.419-5.677-2-6.5-.45 4.966-1.783 5.132-4 .5 2.955-3.768 2.288-6.768-2-9 2.49-.626 2.49-1.459 0-2.5a64.501 64.501 0 0 1 6.5-4l1 1 2-4c3.804 1.568 7.804 3.568 12 6a3.647 3.647 0 0 1 1.5-1c2.662 2.997 5.995 4.331 10 4z"/><path fill="#b4d077" d="M598.125 455a38.49 38.49 0 0 0 13-2c1.952.6 3.952.27 6-1 2.182 2.26 4.849 3.76 8 4.5 5.297.38 9.964-.12 14-1.5.238 3.6-.762 3.93-3 1-2.315.92-2.482 2.25-.5 4 1.943-.46 3.276.54 4 3 1.269-1.4 1.769-3.07 1.5-5 2.18-.22 3.847.62 5 2.5a105.09 105.09 0 0 0 0 11c.667.33 1.333.67 2 1-.011 4.37-.678 8.87-2 13.5a171.367 171.367 0 0 0-24 8 6.845 6.845 0 0 1-1.5-3c-1.902.89-3.735.55-5.5-1a15.576 15.576 0 0 0 2.5-4c1.494 1.25 2.994 1.25 4.5 0a19.895 19.895 0 0 1-6-3c-.758 1.31-1.758 1.81-3 1.5a32.065 32.065 0 0 0-4-2.5 10.914 10.914 0 0 0-3-4.5c3.23-1.72 3.564-3.72 1-6 .333-.33.667-.67 1-1-2.101.44-3.935.94-5.5 1.5v-6c-3.323-.32-6.323-.32-9 0a4.939 4.939 0 0 1-.5-3 8.394 8.394 0 0 1-4-.5c3.028-2.59 6.028-5.09 9-7.5z"/><path fill="#eaf1cd" d="M537.125 453c.722.42 1.222 1.08 1.5 2a36.526 36.526 0 0 1 4.5-2c1.232.64 2.565.81 4 .5.979 1.78.646 3.45-1 5 .647 1.61 1.48 3.11 2.5 4.5.319-7.13 2.152-7.46 5.5-1 .98-1.48 2.147-2.81 3.5-4a12.202 12.202 0 0 0 3.5 4.5c4.305-.08 8.638-.24 13-.5a1988.612 1988.612 0 0 0-57 20 3772.835 3772.835 0 0 0-83 26.5c-7.265 1.07-14.265.24-21-2.5a630.696 630.696 0 0 1-29-16c1.699-.16 3.366.01 5 .5 3.71 2.85 7.71 5.19 12 7 4.488-.35 8.155 1.15 11 4.5 2.98-.85 6.147-1.18 9.5-1 .318 1.56 1.15 2.73 2.5 3.5-.333.33-.667.67-1 1 6.589.77 12.923-.23 19-3 2.18-2.95 4.847-3.78 8-2.5 5.346-1.1 10.68-2.27 16-3.5 17.706-6.19 35.372-12.36 53-18.5 2.812-3.34 2.479-6.51-1-9.5a9.39 9.39 0 0 0 1.5-2.5c2.57.51 4.903 1.51 7 3 .92-.43 1.753-.76 2.5-1-1.667-1-3-2.33-4-4-1.598.98-3.265 1.15-5 .5 2.916-.05 3.916-1.22 3-3.5 1.772-.47 3.439-1.64 5-3.5-.556-.38-.89-.88-1-1.5a43.23 43.23 0 0 1 10-3z"/><path fill="#ecf0d7" d="M527.125 456c.11.62.444 1.12 1 1.5-1.561 1.86-3.228 3.03-5 3.5.916 2.28-.084 3.45-3 3.5 1.735.65 3.402.48 5-.5 1 1.67 2.333 3 4 4-.747.24-1.58.57-2.5 1a17.988 17.988 0 0 0-7-3 9.39 9.39 0 0 1-1.5 2.5c3.479 2.99 3.812 6.16 1 9.5a2.424 2.424 0 0 0-.5-2c-3.495.98-6.662 2.65-9.5 5a3.627 3.627 0 0 1-1.5-1c-3.328 3.79-6.162 3.29-8.5-1.5 2.667-2.33 5.333-4.67 8-7a20.078 20.078 0 0 1-6-1.5c-.033-1.49-.533-2.82-1.5-4-1.356.88-2.856 1.21-4.5 1 .05 2.09-.95 3.42-3 4-.44-1.2-.773-2.36-1-3.5l5.5-4.5c.667-1 .667-2 0-3-.654 1.2-1.154 1.2-1.5 0a15.074 15.074 0 0 0 3-3.5c-6.213-4.42-13.213-6.92-21-7.5a100.886 100.886 0 0 0-11.5 6c-.718-.95-1.551-1.12-2.5-.5a14.82 14.82 0 0 0-3 4.5c-.697-3.07-2.53-5.07-5.5-6-.333.33-.667.67-1 1a4.473 4.473 0 0 0-1.5-2c-4.613.78-9.28 1.28-14 1.5a18.073 18.073 0 0 1-4.5 5.5c-1.653-.32-2.653-1.32-3-3l-3 3a12.355 12.355 0 0 0-4.5-5c-3.054 1.58-6.054 2.41-9 2.5a29.84 29.84 0 0 1-2.5 6.5l-3-3c-.333.33-.667.67-1 1-1.13-4.29-3.963-6.62-8.5-7a44.211 44.211 0 0 0 9-3c.033-1.49.533-2.82 1.5-4 1.333 1.33 2.667 2.67 4 4 1.236-.9 2.07-2.07 2.5-3.5-.914-2.873-2.414-3.04-4.5-.5-.456-1.244.044-2.077 1.5-2.5-2.455-3.125-4.122-2.625-5 1.5-3.098.087-3.432-.413-1-1.5l-4-3c-8.417-1.123-16.417.044-24 3.5a16.076 16.076 0 0 0-5-2c31.464-7.825 63.13-7.992 95-.5 13.748 3.581 26.748 8.91 39 16 6.519.62 12.852-.21 19-2.5z"/><path fill="#edf1d6" d="M576.125 440c.095 3.215-.905 6.05-3 8.5.13 1.06.63 1.89 1.5 2.5 1-.33 2-.67 3-1 2.768.71 3.6 2.21 2.5 4.5 2.667.67 2.667 1.33 0 2 1.184 1.15 1.184 2.31 0 3.5-1.714 1.24-3.714 1.91-6 2-4.362.26-8.695.42-13 .5a12.202 12.202 0 0 1-3.5-4.5 20.052 20.052 0 0 0-3.5 4c-3.348-6.46-5.181-6.13-5.5 1a20.486 20.486 0 0 1-2.5-4.5c1.646-1.55 1.979-3.22 1-5-1.435.31-2.768.14-4-.5a36.526 36.526 0 0 0-4.5 2c-.278-.92-.778-1.58-1.5-2a443.924 443.924 0 0 1 39-13z"/><path fill="#b2cd7a" d="M19.125 460c47.825 23.08 95.492 46.41 143 70 .584 1.76 1.75 3.09 3.5 4 6.773 3.3 13.607 6.47 20.5 9.5a72.054 72.054 0 0 0 10 8.5c-1.355 1.18-1.188 2.18.5 3 2.194-2.52 4.194-2.18 6 1 2.456.8 5.123.8 8 0a284.322 284.322 0 0 1 36.5 18.5c2.24.98 4.573 1.48 7 1.5l32 15a1661.978 1661.978 0 0 0 49 24 680.329 680.329 0 0 0 38 19c12.973 6.49 25.973 12.99 39 19.5 9.188 2.39 18.52 3.06 28 2 9.366-2.4 18.699-4.9 28-7.5h6c-3.303 2.94-6.97 5.61-11 8a13.374 13.374 0 0 0-3 4.5c-3.07.08-6.07-.42-9-1.5v4h-4v-3c-1.808-.01-3.475.49-5 1.5 2.767.67 3.267 1.84 1.5 3.5-.667-.67-1.333-1.33-2-2-1.422.71-2.755 1.04-4 1-.5 5.66-.666 11.32-.5 17a58.39 58.39 0 0 1 13 4c3.65-.89 7.317-1.55 11-2v4c-7.074-.2-7.574 1.13-1.5 4a31.064 31.064 0 0 0 4.5-2c-1.102 1.59-.435 2.43 2 2.5-3.234 2.47-6.901 3.63-11 3.5.17 1.32-.163 2.49-1 3.5-3.001.74-5.668 1.9-8 3.5-7.865 1.88-15.865 2.38-24 1.5a135.405 135.405 0 0 1-17.5-10.5c-.333.33-.667.67-1 1a22.741 22.741 0 0 0-8.5-2v-3c-3.385.48-5.718-.86-7-4-19.072-7.36-37.238-16.36-54.5-27-.718.95-1.551 1.12-2.5.5a70.02 70.02 0 0 1-11.5-7.5c-2.394.64-4.894.64-7.5 0a5541.084 5541.084 0 0 1-89-44c-2.004-2.2-4.337-4.2-7-6-6.297-3.15-12.63-6.32-19-9.5-1.973-.5-3.973-.66-6-.5-3.412-.57-6.412-1.91-9-4-.011-1.52-.677-2.68-2-3.5a55.828 55.828 0 0 1-15-8c-1.667-.33-3.333-.67-5-1-4.951-4.04-10.618-6.21-17-6.5a4350.688 4350.688 0 0 1-112-55c-2.333-2.42-5-4.59-8-6.5-5.667-2.33-11.333-4.67-17-7a15.811 15.811 0 0 1-3.5-5.5c-.5-13.33-.667-26.66-.5-40a180.88 180.88 0 0 0 17 6z"/><path fill="#fdfdfb" d="M1295.125 486c11.01-.17 22.01 0 33 .5 15.74 2.41 24.91 11.57 27.5 27.5 3.24 19.17 1.57 37.84-5 56-5.23 8.87-13.07 13.54-23.5 14h-32v-98z"/><path fill="#0c1105" d="M230.125 490c3.42.47 6.755.47 10 0 4.445 4.68 9.612 7.34 15.5 8l1-3c.478 2.7 1.31 4.7 2.5 6a8.394 8.394 0 0 1 4 .5c2.596 4.1 5.929 7.27 10 9.5a427.793 427.793 0 0 1-43-21z"/><path fill="#abbf84" d="M19.125 460a180.88 180.88 0 0 1-17-6c-.167 13.34 0 26.67.5 40a15.811 15.811 0 0 0 3.5 5.5c5.667 2.33 11.333 4.67 17 7 3 1.91 5.667 4.08 8 6.5-9.978-4.66-19.978-9.32-30-14a577.021 577.021 0 0 1-1-48 82.7 82.7 0 0 1 19 9z"/><path fill="#111708" d="M619.125 498c-5.236 2.16-10.236 4.99-15 8.5-7.067.85-14.067 2.01-21 3.5a380.468 380.468 0 0 1 36-12z"/><path fill="#aabe81" d="M169.125 506c8.989 2.33 17.656 5.5 26 9.5a11.45 11.45 0 0 0 2 2.5 91.89 91.89 0 0 1 10 4c.886.82 1.219 1.82 1 3a1062.112 1062.112 0 0 1-39-19z"/><path fill="#b8cd87" d="M517.125 482a260.287 260.287 0 0 0-20 8.5 838.196 838.196 0 0 1-69.5 21.5l-11-3c-2.005.53-3.171-.47-3.5-3 6.735 2.74 13.735 3.57 21 2.5a3772.835 3772.835 0 0 1 83-26.5z"/><path fill="#abc081" d="M216.125 529c2.687-.16 5.354 0 8 .5a67.358 67.358 0 0 0 12 7c1.323.82 1.989 1.98 2 3.5a170.066 170.066 0 0 1-22-11z"/><path fill="#728255" d="M648.125 514c.709-.9 1.709-1.24 3-1 .33 16.18-.004 32.18-1 48 .65-16.04-.016-31.7-2-47z"/><path fill="#0d1205" d="M299.125 524c6.646 1.49 13.313 2.99 20 4.5 1.245 3.16 2.412 2.99 3.5-.5a48.057 48.057 0 0 1 4.5 6.5c6.125 1.97 11.125 5.47 15 10.5a784.797 784.797 0 0 1-43-21z"/><path fill="#111608" d="M563.125 516c-2.832 2.68-6 5.01-9.5 7-.333-.33-.667-.67-1-1a7.014 7.014 0 0 1-3.5 2.5 361.594 361.594 0 0 0-28.5 9.5c-1.587-1.23-2.921-.89-4 1-1.05-1.02-2.216-1.18-3.5-.5-.655 1.49-1.655 2.65-3 3.5-3.512 1.03-7.178 1.03-11 0a1201.19 1201.19 0 0 1 64-22z"/><path fill="#b2cc7a" d="M2.125 527a13032.693 13032.693 0 0 1 194 95c4.225 2.47 8.225 5.47 12 9a217.555 217.555 0 0 1 40 18.5 37.626 37.626 0 0 0 8 2.5h1c2.32 2.76 5.154 5.1 8.5 7 .667 1.33 1.333 2.67 2 4 1.313-.79 2.48-.45 3.5 1v3a8.394 8.394 0 0 0-4 .5c1.333 1 1.333 2 0 3 2.152 2.08 2.819 1.92 2-.5.333-1 1-1.67 2-2 .924 1.89 2.257 3.39 4 4.5-2.401.81-2.234 1.64.5 2.5 1.279-2.44 2.779-2.94 4.5-1.5-.333.33-.667.67-1 1 1.769 1.02 3.436 1.19 5 .5.135 1.9.135 3.73 0 5.5-2.251-.21-4.251.79-6 3 1.76.97 2.094 2.13 1 3.5a23.444 23.444 0 0 1-3-7 7.352 7.352 0 0 0-3 2c.485 2.61-.35 2.61-2.5 0-1.117 1.45-1.784 3.12-2 5a49.343 49.343 0 0 0-8 5c-3.744-5.85-5.411-5.18-5 2-.914-1.15-1.747-.99-2.5.5 1.26 1.11 2.427 1.28 3.5.5a16.643 16.643 0 0 0 4 4c1.073-.78 2.24-.61 3.5.5-.333.33-.667.67-1 1a18.61 18.61 0 0 1 6.5 3.5c1.825-.6 3.659-1.27 5.5-2 1-1.67 2.333-3 4-4 1.52.38 3.187.55 5 .5-2.401.81-2.234 1.64.5 2.5.442-2.18 1.442-2.85 3-2a7.014 7.014 0 0 1 3.5-2.5c-1.154-.91-.987-1.75.5-2.5 2.077 3.57 5.244 6.57 9.5 9-1.9 2.77-4.234 4.1-7 4 .789 1.99 1.955 2.32 3.5 1 1.688.82 1.855 1.82.5 3 3.382 1.54 3.716 3.71 1 6.5a16.68 16.68 0 0 0 5.5 4.5c3.654-.02 6.82-.02 9.5 0 .42 1.83.42 3.83 0 6 2.09.18 4.09-.15 6-1 3.985 3.6 8.652 5.77 14 6.5a7.014 7.014 0 0 1 3.5 2.5c.667-5.33 1.333-5.33 2 0 2.484 2.76 3.65 2.43 3.5-1a8.394 8.394 0 0 1 4 .5c-.408 2.86.425 3.03 2.5.5 2.987 3.56 6.487 5.56 10.5 6a4.473 4.473 0 0 1-1.5 2c-3.2-.74-3.365.1-.5 2.5.948.48 1.948.65 3 .5-.02 1.64.647 2.98 2 4a209.984 209.984 0 0 1 26 13c.798.46 1.13 1.12 1 2-34.636-16.65-69.302-33.32-104-50a1696.407 1696.407 0 0 1-49-25c.086-1-.248-1.83-1-2.5a44.47 44.47 0 0 1-8-4.5 182.73 182.73 0 0 1-20-9c-2.937-1.94-4.77-4.27-5.5-7l-1 3c-4.44-4.59-9.607-8.26-15.5-11-7.444.13-13.61-2.53-18.5-8-1 .33-2 .67-3 1a231.307 231.307 0 0 0-15.5-7.5 34.238 34.238 0 0 0-8-1.5 6824.108 6824.108 0 0 1-140-68c-.33-16.51.004-32.84 1-49z"/><path fill="#1a2112" d="M499.125 538c-.974 1.59-2.474 2.59-4.5 3-.333-.33-.667-.67-1-1a67.545 67.545 0 0 1-16.5 5c6.999-3.11 14.332-5.44 22-7z"/><path fill="#b6cf7b" d="M644.125 516h5c.285 15.04-.05 30.04-1 45a1216.937 1216.937 0 0 1-47 13.5c-.752.67-1.086 1.5-1 2.5a357.467 357.467 0 0 1-45 15c6.269-5.2 13.602-7.87 22-8 .664-2.37 1.997-4.37 4-6-2.862-.93-5.195-2.6-7-5-3.248 2.62-6.415 2.62-9.5 0-.388.93-1.055 1.59-2 2-1.15-.92-2.15-.92-3 0-1.046-4.05-.213-4.71 2.5-2 2.71-1.21 5.376-2.55 8-4 2.555 2.75 3.555 2.08 3-2 1.322.17 2.489-.16 3.5-1 1.75-2.75 2.584-5.75 2.5-9 1.992-.17 3.658.5 5 2 1.333-2 1.333-4 0-6-2.601-1.92-5.101-3.25-7.5-4a51.173 51.173 0 0 1-7.5 9.5c-1.973.5-3.973.66-6 .5.16-1.7-.006-3.37-.5-5-1.356.88-2.856 1.21-4.5 1 .216 2.18-.617 3.85-2.5 5-1.667-1.33-3.333-1.33-5 0-.853-1.62-1.853-1.96-3-1a8.43 8.43 0 0 1-.5-4c-4.357-1.08-8.69-1.08-13 0 1.648-1.43 3.648-2.26 6-2.5 2.118-1.05 3.784-2.55 5-4.5h3c6.866-.88 13.533-2.38 20-4.5a2702.11 2702.11 0 0 0 22-9.5 514.584 514.584 0 0 1 54-18z"/><path fill="#b1c488" d="M590.125 534a2702.11 2702.11 0 0 1-22 9.5 108.219 108.219 0 0 1-20 4.5 309.49 309.49 0 0 1 42-14z"/><path fill="#b1c783" d="M162.125 530c29.329 14.33 58.662 28.66 88 43l4 3c-2.427-.02-4.76-.52-7-1.5a284.322 284.322 0 0 0-36.5-18.5c-2.877.8-5.544.8-8 0-1.806-3.18-3.806-3.52-6-1-1.688-.82-1.855-1.82-.5-3a72.054 72.054 0 0 1-10-8.5 576.054 576.054 0 0 1-20.5-9.5c-1.75-.91-2.916-2.24-3.5-4z"/><path fill="#a7bb81" d="M545.125 548c-1.216 1.95-2.882 3.45-5 4.5-2.352.24-4.352 1.07-6 2.5-6.75 1.09-13.75 2.42-21 4a451.59 451.59 0 0 1 32-11z"/><path fill="#b4cf79" d="M555.125 592c-3.396.7-6.73.7-10 0a14.831 14.831 0 0 0-3.5 3 3.627 3.627 0 0 0-1.5-1 56.47 56.47 0 0 1-9 1.5c-.59 1.3-1.59 2.13-3 2.5-2.72-1.03-4.72-.03-6 3a24.001 24.001 0 0 1-5.5-1c-2.043 2.47-4.21 2.47-6.5 0 1.317.19 2.65-.48 4-2-2.44-1.13-4.44-.47-6 2a28.718 28.718 0 0 0-5-1.5l2-3a18.61 18.61 0 0 1-6.5-3.5 7.32 7.32 0 0 0-2 3c-.333-.67-.667-1.33-1-2a19.27 19.27 0 0 0-3 9c-.833 1.5-2 2.67-3.5 3.5 1.284.68 2.45.52 3.5-.5 1.44 1.55 3.273 2.38 5.5 2.5-1.83.27-3.33 1.11-4.5 2.5-1.1-2.54-2.766-3.21-5-2a39.36 39.36 0 0 0-8.5-4c1.15-1.23 2.317-1.23 3.5 0 .483-.95.649-1.95.5-3-5.378-.1-10.545-.1-15.5 0-3.46-2.62-6.96-2.62-10.5 0-1.583-2.49-2.583-5.16-3-8-6.663-1.33-7.496-4.33-2.5-9 .414.46.914.79 1.5 1 1.018-2.33 2.35-4.33 4-6a342.97 342.97 0 0 1 42-13.5 89.253 89.253 0 0 0 12-6.5h1c7.25-1.58 14.25-2.91 21-4 4.31-1.08 8.643-1.08 13 0a8.43 8.43 0 0 0 .5 4c1.147-.96 2.147-.62 3 1 1.667-1.33 3.333-1.33 5 0 1.883-1.15 2.716-2.82 2.5-5 1.644.21 3.144-.12 4.5-1 .494 1.63.66 3.3.5 5 2.027.16 4.027 0 6-.5a51.173 51.173 0 0 0 7.5-9.5c2.399.75 4.899 2.08 7.5 4 1.333 2 1.333 4 0 6-1.342-1.5-3.008-2.17-5-2 .084 3.25-.75 6.25-2.5 9-1.011.84-2.178 1.17-3.5 1 .555 4.08-.445 4.75-3 2-2.624 1.45-5.29 2.79-8 4-2.713-2.71-3.546-2.05-2.5 2 .85-.92 1.85-.92 3 0 .945-.41 1.612-1.07 2-2 3.085 2.62 6.252 2.62 9.5 0 1.805 2.4 4.138 4.07 7 5-2.003 1.63-3.336 3.63-4 6-8.398.13-15.731 2.8-22 8z"/><path fill="#b0c389" d="M397.125 545c2.427.02 4.76.52 7 1.5a529.036 529.036 0 0 1 17 8.5 60.863 60.863 0 0 0 19 .5c.667-.67 1.333-1.33 2-2 5.665-1.17 11.332-2.33 17-3.5-11.524 6.11-23.857 8.61-37 7.5a219.214 219.214 0 0 1-25-12.5z"/><path fill="#90a177" d="M2.125 527a600.946 600.946 0 0 0-1 49c-1.327-16.5-1.327-33.17 0-50 .607.12.94.46 1 1z"/><path fill="#b4cf78" d="M451.125 623c-.558 1.29-1.558 2.12-3 2.5-3.062.74-6.062.57-9-.5-1.788 3.41-4.622 4.74-8.5 4-2.54-.46-4.873-.46-7 0a44.14 44.14 0 0 0-13.5-4v-3c-2.667-.67-5.333-1.33-8-2a8.78 8.78 0 0 0-1.5-5c-1.073.78-2.24.61-3.5-.5 1.333-1 1.333-2 0-3-3.394-.75-6.727-.59-10 .5a1026.81 1026.81 0 0 1-38-19.5 17.653 17.653 0 0 0-7-1.5c-6.628-1.98-12.628-4.98-18-9 .219-1.18-.114-2.18-1-3-2.28-.64-4.28-1.64-6-3 .146-2.28-.187-4.61-1-7-3.098.09-3.432-.41-1-1.5-2.491-.63-2.491-1.46 0-2.5-1.216-.6-2.55-.76-4-.5.667-.67 1.333-1.33 2-2-2.667-1-2.667-2 0-3-.333-.33-.667-.67-1-1l3-1.5c.476 2.43 1.809 4.76 4 7a19.031 19.031 0 0 1 5-3 61.73 61.73 0 0 1 3-7c-.22-2.42-1.552-3.42-4-3-.214-3.76.786-4.42 3-2 1.348-2.11 1.015-3.94-1-5.5 1.667-.67 3.333-.67 5 0 .687 2.23 1.02 4.4 1 6.5l3-1.5c-.951-.72-1.117-1.55-.5-2.5.739 1.07 1.739 1.74 3 2 2.424-1.66 4.258-1.16 5.5 1.5 2.4.19 4.734.69 7 1.5a88.108 88.108 0 0 0 18 8.5c2.636 1.15 4.636 2.98 6 5.5 2.21.62 4.21 1.62 6 3-.916 2.28.084 3.45 3 3.5-1.658.73-2.158 1.89-1.5 3.5 3.054-4.8 6.888-4.97 11.5-.5-2.563.92-4.73.42-6.5-1.5.115 2.84 1.282 5.34 3.5 7.5-.84 1.67-.34 1.83 1.5.5.333.67.667 1.33 1 2 2.032-2.27 3.365-1.6 4 2 2.129-1.36 2.629-1.03 1.5 1 4.22 3.74 7.888 7.24 11 10.5-1.41.37-2.41 1.2-3 2.5.789 1.99 1.955 2.32 3.5 1-1.08 6.59 1.754 9.76 8.5 9.5-6.245-1.33-6.245-3.16 0-5.5-2.067-.63-3.9-1.63-5.5-3-.14-2.02-.307-3.85-.5-5.5 2.098.03 4.098.7 6 2-1 .33-2 .67-3 1a17.785 17.785 0 0 1 5.5 4.5c1.697-.86 2.863-2.2 3.5-4-1.333-1-1.333-2 0-3-.605-1.98-1.605-2.31-3-1-1.795-2.2-4.13-3.37-7-3.5 1.333-.67 1.333-1.33 0-2 1.769-1.02 3.436-1.19 5-.5 2.506-2.47 5.173-2.97 8-1.5-2.76 2.48-2.426 3.65 1 3.5.107 2.4-.893 4.24-3 5.5 1.333.67 1.333 1.33 0 2 .5.17 1 .33 1.5.5a79.336 79.336 0 0 0 6-6c2.21 1.61 4.71 2.28 7.5 2 .14 1.62-.527 2.79-2 3.5 1.75 1.75 2.417 3.92 2 6.5h4c.17-1.32-.163-2.49-1-3.5a4.949 4.949 0 0 1 3-.5c.64 3.83 2.307 4.5 5 2 1.333 1.33 1.333 2.67 0 4-1.598-.98-3.265-1.15-5-.5 3.956 1.11 3.956 1.95 0 2.5.359 2.27-.308 4.1-2 5.5a31.425 31.425 0 0 0 6 4.5 4.486 4.486 0 0 1-2 1.5c1.633.48 2.966 1.31 4 2.5z"/><path fill="#b3c789" d="M648.125 514c1.984 15.3 2.65 30.96 2 47a729.367 729.367 0 0 1-50 16c-.086-1 .248-1.83 1-2.5 15.704-4.17 31.37-8.67 47-13.5a545.968 545.968 0 0 0 1-45h-5c1.014-1.17 2.347-1.84 4-2z"/><path fill="#acc082" d="M143.125 568c6.382.29 12.049 2.46 17 6.5 1.667.33 3.333.67 5 1a55.828 55.828 0 0 0 15 8c1.323.82 1.989 1.98 2 3.5a1061.773 1061.773 0 0 1-39-19z"/><path fill="#abc180" d="M297.125 569c4.99 1.31 9.99 2.65 15 4 1.44 1.45 3.106 2.45 5 3 1.72 1.36 3.72 2.36 6 3 .886.82 1.219 1.82 1 3a168.205 168.205 0 0 1-27-13z"/><path fill="#0d1106" d="m286.125 591-32-15-4-3c2.863-1.19 5.197-.53 7 2 4.367-.66 8.034.51 11 3.5 3.107.54 5.94 1.71 8.5 3.5.414-.46.914-.79 1.5-1 1.08 3.38 3.414 5.04 7 5-.134 1.79.199 3.46 1 5z"/><path fill="#afc388" d="M512.125 559a89.253 89.253 0 0 1-12 6.5 342.97 342.97 0 0 0-42 13.5c-4.663 2.28-9.663 3.78-15 4.5-13.706 2.15-26.706.32-39-5.5-1.493-.64-2.493-1.64-3-3a85.137 85.137 0 0 0 20 7.5c5.667.67 11.333.67 17 0a3073.91 3073.91 0 0 0 74-23.5z"/><path fill="#a3a3a3" d="M1295.125 486v98h32c-10.82.99-21.82 1.33-33 1-.33-33.17 0-66.17 1-99z"/><path fill="#fabd2f" d="M735.125 594c1.567 1.18 2.4 2.85 2.5 5 1.008-.48 2.175-.65 3.5-.5l-1-3c.948-.48 1.95-.65 3-.5 1.11 3.24.44 6.24-2 9 .53.69 1.19 1.19 2 1.5-1.16 1.01-1.825 2.34-2 4 .58 2.66 1.58 5.16 3 7.5.78-1.23 1.28-2.56 1.5-4 1 1.67 2 3.33 3 5-.55 3.63-.39 7.29.5 11 1.48.26 2.81-.07 4-1-.76-.41-1.76-.58-3-.5 1.12-1.89 2.78-2.73 5-2.5v4c2.39-.36 4.72-1.02 7-2 1 .33 2 .67 3 1-2.91 1.9-3.91 4.4-3 7.5-.73 2.82-1.4 5.65-2 8.5.7 1.36.7 2.53 0 3.5 2.91 2.51 3.41 5.35 1.5 8.5-1.36-.88-2.86-1.21-4.5-1 .21 4.7.38 9.36.5 14a72.84 72.84 0 0 0-7 4c-2.15-1.78-1.99-3.28.5-4.5-2.69-.86-4.35-2.69-5-5.5-.93-1.14-1.76-1.14-2.5 0 .32-3.76 1.82-7.1 4.5-10l2 2c.58-2.62 2.08-2.62 4.5 0 2.55-3.63 1.88-6.3-2-8-.33.67-.67 1.33-1 2a8.95 8.95 0 0 0-3-4c-.33.67-.67 1.33-1 2-1-1.33-2-1.33-3 0-.59-3.48-1.76-6.65-3.5-9.5 4.97-.48 5.3-1.98 1-4.5-3.615 2.33-3.95 5.16-1 8.5-.794 2.06-1.127 4.06-1 6 3.04.36 3.38 1.03 1 2 2.16 1.08 2.32 2.25.5 3.5-1.232-2.73-2.065-2.56-2.5.5.614 1.54.614 2.87 0 4a6.575 6.575 0 0 0 3 3 13.892 13.892 0 0 1-3 4 25.629 25.629 0 0 1 2.5 7.5c1.5.83 2.67 2 3.5 3.5-2.16.25-3.83 1.25-5 3 .948.48 1.95.65 3 .5.53 5.3 1.37 5.3 2.5 0 1.97-.81 3.47-2.14 4.5-4 1.31 1.32 2.81 2.32 4.5 3 .71 1.58 1.54 3.08 2.5 4.5-.55 1.4-.88 2.73-1 4 .95.48 1.95.65 3 .5-1.87-9.3 1.8-13.13 11-11.5-2.23 2.75-3.23 5.91-3 9.5h-6c-.9 3.74.43 5.74 4 6 .67-5.33 1.33-5.33 2 0 1.18-.22 2.18.11 3 1-1.29 2.87-1.29 5.7 0 8.5-.95.48-1.95.65-3 .5-.16 3.02 0 6.02.5 9 1.69.82 1.85 1.82.5 3a9.345 9.345 0 0 0 3 3c-2.76 3.98-2.43 7.65 1 11-.17.67-.33 1.33-.5 2-1.12-.17-2.28-.5-3.5-1-.33.5-.67 1-1 1.5 2.55 2.05 4.55 4.55 6 7.5-2.83 2.88-4.99 2.55-6.5-1-2.23.69-4.4 1.02-6.5 1l-2-2c-1.34 1.5-3.01 2.17-5 2-.21 3.76.79 4.42 3 2 1.06 1.27 2.06 2.44 3 3.5a23.215 23.215 0 0 0-3 3.5 8.95 8.95 0 0 1-4-3 15.02 15.02 0 0 1-6 3.5c-1.33 1-1.33 2 0 3-1 .67-2 .67-3 0 1.33-.67 1.33-1.33 0-2-2.5-.37-4.833-1.21-7-2.5a18.253 18.253 0 0 0-6 4 3.627 3.627 0 0 1-1.5-1c-.368 1.41-1.201 2.41-2.5 3-2.496-2.45-5.162-2.62-8-.5 1.658.73 2.158 1.89 1.5 3.5-2.022-1.49-3.688-1.16-5 1-.667-1.33-1.333-2.67-2-4-1.364.76-2.531.26-3.5-1.5-2.93-.78-5.763-.61-8.5.5-1.33-3.51-3.83-5.17-7.5-5-1.207-4.02-2.54-8.02-4-12 2.543-2.26 2.543-4.43 0-6.5.333-.33.667-.67 1-1-1.211-.79-2.211-1.45-3-2l.5-1.5c.667 1.33 1.333 1.33 2 0a12.479 12.479 0 0 1 2.5 4c2.124 1.07 3.124.24 3-2.5-1.305-1.76-1.972-3.42-2-5 1.063-1.19 2.397-1.69 4-1.5a4.939 4.939 0 0 0-.5-3l-5-3a14.706 14.706 0 0 0-1.5-5c-1.006.44-1.006 1.1 0 2-2.456 2.72-3.123 2.56-2-.5-.928-.39-1.595-1.05-2-2 1.787-5.62 5.453-9.45 11-11.5-1.19-.93-2.522-1.26-4-1 .17-1.32-.163-2.49-1-3.5a11.323 11.323 0 0 0 1.5-3.5c.333.33.667.67 1 1 .5-1.17 1.333-2 2.5-2.5-.638-1.71-.638-3.54 0-5.5 1.175-.22 2.175.11 3 1-1.09 1.11-1.09 2.11 0 3 .98-2.59 1.313-5.25 1-8h4l4-12c-5.706.7-6.706-.64-3-4 1.028 1.86 2.528 3.19 4.5 4 .333-.67.667-1.33 1-2 .423 1.46 1.256 1.96 2.5 1.5.404-2.07.404-4.24 0-6.5a27.236 27.236 0 0 1 3.5-8c2.799.7 5.966 1.03 9.5 1 .06-4.82 1.227-5.16 3.5-1a15.085 15.085 0 0 1 4.5-1.5c-.758-1.36-.258-2.53 1.5-3.5-.392-5.77 1.44-10.61 5.5-14.5-2.58-3.37-4.413-7.2-5.5-11.5a7.32 7.32 0 0 0-2 3c-.333-.67-.667-1.33-1-2-1.555 9.31-2.722 9.15-3.5-.5a75.695 75.695 0 0 0 7-6c-2.491-.63-2.491-1.46 0-2.5a7.239 7.239 0 0 0-2-2.5c1.304-.8 1.97-1.97 2-3.5-1.564-2.81-2.23-5.81-2-9z"/><path fill="#abbf83" d="M191.125 591c2.027-.16 4.027 0 6 .5 6.37 3.18 12.703 6.35 19 9.5 2.663 1.8 4.996 3.8 7 6a359.563 359.563 0 0 1-32-16z"/><path fill="#b5cd81" d="M501.125 610a1058.08 1058.08 0 0 1-65 21.5c-9.74 1.8-18.406-.36-26-6.5a44.14 44.14 0 0 1 13.5 4c2.127-.46 4.46-.46 7 0 3.878.74 6.712-.59 8.5-4 2.938 1.07 5.938 1.24 9 .5 1.442-.38 2.442-1.21 3-2.5 1.699.16 3.366-.01 5-.5 2.287-2.84 1.62-5.18-2-7 1.785-1.16 3.785-1.83 6-2-1.333-.33-2.667-.67-4-1l1.5-1.5c1.908.58 3.575.58 5 0 1.676-.56 3.009-1.56 4-3 .308.81.808 1.47 1.5 2 4.039-.88 7.872-.88 11.5 0 1.309-2.39 2.309-2.39 3 0 1.073-.78 2.24-.61 3.5.5-.333.33-.667.67-1 1 1.5.17 3 .33 4.5.5 3.809-.82 7.642-1.49 11.5-2z"/><path fill="#afc680" d="M342.125 591c2.427.02 4.76.52 7 1.5a1026.81 1026.81 0 0 0 38 19.5c3.273-1.09 6.606-1.25 10-.5 1.333 1 1.333 2 0 3 1.26 1.11 2.427 1.28 3.5.5a8.78 8.78 0 0 1 1.5 5c2.667.67 5.333 1.33 8 2v3a1622.879 1622.879 0 0 1-68-34z"/><path fill="#b3cd79" d="M31.125 619a667.231 667.231 0 0 1 44 21c.01 1.52.677 2.68 2 3.5a49.269 49.269 0 0 0 9 3c1.987 1.32 3.154 3.15 3.5 5.5 1.494-1.25 2.994-1.25 4.5 0l3 6c-1 .83-2 1.67-3 2.5 2.452-.29 4.619-.79 6.5-1.5.089 1.61-.745 2.78-2.5 3.5a7.014 7.014 0 0 1 3.5 2.5c-.077-1.24.089-2.24.5-3 .886.82 1.219 1.82 1 3 1.667-.67 3.333-1.33 5-2 .607 2.58 1.774 4.91 3.5 7 1.825 1.07 2.992.4 3.5-2-.921-2.26-2.588-3.26-5-3-.22-1.18.114-2.18 1-3 4.057 2.29 8.223 4.29 12.5 6 2.443-.79 4.943-.62 7.5.5 8.104 3.93 16.104 8.1 24 12.5a18.74 18.74 0 0 0 8 2c-.086 1 .248 1.83 1 2.5a89.288 89.288 0 0 1 25 13c20.256 7.8 39.59 17.13 58 28a80.58 80.58 0 0 0 15 5.5 64.81 64.81 0 0 1 14 6v3a8.394 8.394 0 0 1 4 .5 376.829 376.829 0 0 1 23 13 45.444 45.444 0 0 0-1 7.5c.762.41 1.762.58 3 .5 1.21 1.11 1.21 2.28 0 3.5 3.807 4.4 6.473 3.9 8-1.5-.405-.95-1.072-1.61-2-2 .916-.37 1.75-.87 2.5-1.5a96.616 96.616 0 0 0 10.5 6c.667-.33 1.333-.67 2-1a438.496 438.496 0 0 1 37 17 40.984 40.984 0 0 1 4 4.5c-.808.31-1.475.81-2 1.5 1.853 1.26 3.686 1.26 5.5 0 .75.63 1.584 1.13 2.5 1.5-1.333.67-1.333 1.33 0 2-.667.33-1.333.67-2 1a36.184 36.184 0 0 1 5 8.5c1.167.33 2.333.67 3.5 1 2.49-.84 4.99-1.5 7.5-2-.168-3.18 1.166-3.68 4-1.5 1.079.96 2.245 1.79 3.5 2.5.492 1.05.326 2.05-.5 3 .825.89 1.825 1.22 3 1v3c2.829.18 4.496-1.16 5-4 1.272-.55 2.606-.88 4-1a25.985 25.985 0 0 0 11 2c.418.72 1.084 1.22 2 1.5 8.375.74 16.708.41 25-1 9.427-3.51 18.76-7.01 28-10.5 9.647-2.66 19.314-5.33 29-8-3.215 3.27-7.215 4.77-12 4.5-1.912 2.79-4.58 4.12-8 4 2.5.83 2.667 2 .5 3.5-2.102-.05-4.102-1.05-6-3a20.228 20.228 0 0 0-3.5 2.5c-1.333 1.33-1.333 2.67 0 4-.95.62-1.782.45-2.5-.5-1.312 2.16-2.978 2.49-5 1-1.682 1.36-1.85 2.86-.5 4.5-1.884.22-3.551.88-5 2-2.975.71-5.475-.12-7.5-2.5a6.845 6.845 0 0 1-1.5 3c-.498-1.1-.831-2.1-1-3-2.982.9-5.982 1.06-9 .5-.457.41-.791.91-1 1.5a31.353 31.353 0 0 1 5 4.5c-3.16.87-6.493 1.2-10 1a26.393 26.393 0 0 1-2 3.5c-2.9-2.39-4.733-5.39-5.5-9-1 1.33-2 1.33-3 0-.317 1.8-.984 2.13-2 1v4c-.667-.67-1.333-1.33-2-2-.718.95-1.551 1.12-2.5.5 3.212-1.71 3.378-3.21.5-4.5-.221 3.44-1.221 3.78-3 1-1.333 1.33-2.667 1.33-4 0a4.939 4.939 0 0 0-.5 3c1.644.21 3.144-.12 4.5-1 .333 1.55-.167 2.88-1.5 4 1.898 1.23 3.565.9 5-1a23.447 23.447 0 0 0 3 3.5c-1.48 2.67-2.98 2.83-4.5.5-1.512 2.46-2.846 2.46-4 0-2.021.74-3.521-.1-4.5-2.5.667-.33 1.333-.67 2-1-6.276-1.23-9.943.94-11 6.5a6.845 6.845 0 0 1-1.5-3c-.906 3.78.26 6.78 3.5 9a19.031 19.031 0 0 0-5 3c-2.523-2.76-5.523-4.76-9-6-3.484 2.75-5.15 2.09-5-2a19.031 19.031 0 0 0-5 3 6.824 6.824 0 0 0 3 1.5c-.637 2.93.363 5.43 3 7.5a127.038 127.038 0 0 1 20 8 38.655 38.655 0 0 1 7-6c2.37-.51 4.704-.85 7-1-2.66-3.03-1.993-3.7 2-2a37.321 37.321 0 0 0 5.5-2c1.653.32 2.653 1.32 3 3a8.878 8.878 0 0 1 3-4c.317 1.8.984 2.13 2 1 .483.95.649 1.95.5 3 1.603.19 2.937-.31 4-1.5-.165-1.12-.498-2.28-1-3.5.5-.33 1-.67 1.5-1 1.946 2.46 4.446 3.8 7.5 4 .284 2.38.284 4.54 0 6.5a22.235 22.235 0 0 1 6.5 5.5c4.284-1.48 8.45-1.98 12.5-1.5-2.095.56-2.262 1.06-.5 1.5a17.938 17.938 0 0 0 5-5c.333.33.667.67 1 1a14.398 14.398 0 0 1 5.5-2.5c-.667-.33-1.333-.67-2-1 1.333-.67 1.333-1.33 0-2 1.667-.67 3.333-.67 5 0 1.333.67 1.333 1.33 0 2 2.957.65 5.457-.18 7.5-2.5a7.248 7.248 0 0 0 2.5 2 9.126 9.126 0 0 1 5-1 515.45 515.45 0 0 1-42 14 198.669 198.669 0 0 0-19 4.5c-3.652.5-7.318.67-11 .5a4346.303 4346.303 0 0 1-112-55c.219-1.18-.114-2.18-1-3a44.112 44.112 0 0 1-7-6c2.386-.18 5.052-.18 8 0a49.935 49.935 0 0 1-2.5-13c-.667-1.33-1.333-1.33-2 0-.36-3.04-1.026-3.38-2-1-3.24-1.95-6.24-1.28-9 2-2.14-1.12-3.306-2.46-3.5-4l-2 3c-1.771-.54-2.104-1.37-1-2.5a7.014 7.014 0 0 1-3.5-2.5c.115 2.84 1.282 5.34 3.5 7.5l-6 1.5a243.842 243.842 0 0 1-20-8.5 69.14 69.14 0 0 0-9-1.5c-4.046-4.36-9.046-7.36-15-9-4.45-4.1-9.782-6.1-16-6v-3c-5.262-3.38-10.928-6.21-17-8.5a9.39 9.39 0 0 1-1.5-2.5c-.893.58-1.893.91-3 1a1784.886 1784.886 0 0 1-35.5-18.5c-5.042-2.4-10.375-3.9-16-4.5a82.7 82.7 0 0 1-19-9c-3.467-4.6-8.134-7.43-14-8.5-9.363-4.72-18.696-9.38-28-14-6.484-5.72-14.15-8.89-23-9.5a1242.485 1242.485 0 0 1-60-29c.039-1.26-.461-2.26-1.5-3-.5-13.66-.667-27.33-.5-41a70.835 70.835 0 0 1 20 9.5 46.007 46.007 0 0 0 9 2.5z"/><path fill="#acc17e" d="M625.125 644a166.035 166.035 0 0 0-14 4c.12-1.09.787-1.75 2-2 8.37-2.68 16.704-5.51 25-8.5a14.506 14.506 0 0 1 5-4c-.667-.33-1.333-.67-2-1 1.349-.77 2.182-1.94 2.5-3.5.442 2.18 1.442 2.85 3 2a445.793 445.793 0 0 0 1.5-40 713.286 713.286 0 0 1-43 12.5c-3.234 3.71-7.068 5.54-11.5 5.5a52.135 52.135 0 0 1-15.5 3 785.881 785.881 0 0 1 34-12.5c13.025-3.95 26.025-7.79 39-11.5.167 15.67 0 31.34-.5 47a385.978 385.978 0 0 0-25.5 9z"/><path fill="#afc385" d="M578.125 612c-1.6 1.14-3.267 2.31-5 3.5-11.006 2.18-21.34 5.85-31 11a2733.739 2733.739 0 0 0-68 21.5h-6a2126.988 2126.988 0 0 1 110-36z"/><path fill="#0b1104" d="M373.125 634a680.329 680.329 0 0 1-38-19c1.967.24 3.8-.09 5.5-1a70.163 70.163 0 0 1 10 5c1.117-.17 2.284-.5 3.5-1 .793.86.46 1.69-1 2.5 5.267 1.28 9.434 4.11 12.5 8.5.333-.33.667-.67 1-1 2.409 1.92 4.576 3.92 6.5 6z"/><path fill="#acc085" d="M31.125 619a46.007 46.007 0 0 1-9-2.5 70.835 70.835 0 0 0-20-9.5c-.167 13.67 0 27.34.5 41 1.039.74 1.539 1.74 1.5 3a5.56 5.56 0 0 1-3-1 265.066 265.066 0 0 1 0-46c10.34 4.5 20.34 9.5 30 15z"/><path fill="#e5be60" d="M776.125 390h1v354c-2.29.09-4.29.76-6 2-4.2 1.04-8.2 2.38-12 4h-3c.84-1.67 2.18-2.84 4-3.5 5.28-.72 10.28-2.22 15-4.5 1-116.17 1.33-232.5 1-349l-8 1c2.67-1.333 5.33-2.667 8-4z"/><path fill="#b2c788" d="M196.125 622c20.38 9.52 40.38 19.52 60 30a37.626 37.626 0 0 1-8-2.5 217.555 217.555 0 0 0-40-18.5c-3.775-3.53-7.775-6.53-12-9z"/><path fill="#b4d078" d="M611.125 648a425.808 425.808 0 0 0-22 8 401.28 401.28 0 0 0-22 6 252.592 252.592 0 0 0-18 4c-4.311-1.31-8.145-1.31-11.5 0-3.8 3.59-8.3 5.92-13.5 7a29.954 29.954 0 0 1-6 4.5c-12.2 4.3-24.533 8.13-37 11.5-2.791-.28-5.624-.61-8.5-1-3.016 4.32-5.35 3.99-7-1-.278.92-.778 1.58-1.5 2a31.064 31.064 0 0 1-4.5 2c-6.074-2.87-5.574-4.2 1.5-4v-4c-3.683.45-7.35 1.11-11 2a58.39 58.39 0 0 0-13-4c-.166-5.68 0-11.34.5-17 1.245.04 2.578-.29 4-1 .667.67 1.333 1.33 2 2 1.767-1.66 1.267-2.83-1.5-3.5 1.525-1.01 3.192-1.51 5-1.5v3h4v-4c2.93 1.08 5.93 1.58 9 1.5a13.374 13.374 0 0 1 3-4.5c4.03-2.39 7.697-5.06 11-8a2733.739 2733.739 0 0 1 68-21.5c9.66-5.15 19.994-8.82 31-11 1.733-1.19 3.4-2.36 5-3.5a52.135 52.135 0 0 0 15.5-3c4.432.04 8.266-1.79 11.5-5.5a713.286 713.286 0 0 0 43-12.5c.099 13.35-.401 26.69-1.5 40-1.558.85-2.558.18-3-2-.318 1.56-1.151 2.73-2.5 3.5.667.33 1.333.67 2 1a14.506 14.506 0 0 0-5 4 732.494 732.494 0 0 1-25 8.5c-1.213.25-1.88.91-2 2z"/><path fill="#121708" d="M118.125 660a144.145 144.145 0 0 1-25-12c2.86.77 5.695 1.1 8.5 1 1.152-2.01 2.318-2.18 3.5-.5-.333.33-.667.67-1 1 2 1.33 4 2.67 6 4-.333.33-.667.67-1 1 3.398 1.36 6.398 3.19 9 5.5z"/><path fill="#0d1205" d="M625.125 644a75.489 75.489 0 0 1-7.5 7c-1.147-.96-2.147-.62-3 1-2.05.85-4.382.85-7 0-3.278 1.33-6.611 2.99-10 5-2.55-.46-5.384-.79-8.5-1 7.187-2.84 14.52-5.51 22-8 4.609-1.54 9.276-2.87 14-4z"/><path fill="#b5cc83" d="M75.125 640c6 2.67 12 5.33 18 8a144.145 144.145 0 0 0 25 12c14.875 7.94 29.875 15.6 45 23a18.74 18.74 0 0 1-8-2 475.955 475.955 0 0 0-24-12.5c-2.557-1.12-5.057-1.29-7.5-.5a103.796 103.796 0 0 1-12.5-6c-.886.82-1.22 1.82-1 3 2.412-.26 4.079.74 5 3-.508 2.4-1.675 3.07-3.5 2-1.726-2.09-2.893-4.42-3.5-7-1.667.67-3.333 1.33-5 2 .219-1.18-.114-2.18-1-3-.411.76-.577 1.76-.5 3a7.014 7.014 0 0 0-3.5-2.5c1.755-.72 2.589-1.89 2.5-3.5-1.881.71-4.048 1.21-6.5 1.5 1-.83 2-1.67 3-2.5l-3-6c-1.506-1.25-3.006-1.25-4.5 0-.346-2.35-1.513-4.18-3.5-5.5a49.269 49.269 0 0 1-9-3c-1.323-.82-1.99-1.98-2-3.5z"/><path fill="#f1c04f" d="M699.125 418c-.111.617-.444 1.117-1 1.5a80.283 80.283 0 0 0-13.5 4.5c-.5 115.67-.667 231.33-.5 347 3.698-.05 7.365-.39 11-1-1.714 1.24-3.714 1.91-6 2h-6V617c-.167-64.67 0-129.33.5-194a58.769 58.769 0 0 1 15.5-5z"/><path fill="#b1c77e" d="M141.125 644c2.716.18 5.383.68 8 1.5a231.307 231.307 0 0 1 15.5 7.5c1-.33 2-.67 3-1 4.89 5.47 11.056 8.13 18.5 8 5.893 2.74 11.06 6.41 15.5 11l1-3c.73 2.73 2.563 5.06 5.5 7a182.73 182.73 0 0 0 20 9 44.47 44.47 0 0 0 8 4.5c.752.67 1.086 1.5 1 2.5l-14-6c-27.302-13.65-54.636-27.32-82-41z"/><path fill="#b3c787" d="M649.125 662c.996 15.82 1.33 31.82 1 48a128.42 128.42 0 0 1-11 4c2.712-1.9 5.546-3.9 8.5-6 .667-14 .667-28 0-42a3.627 3.627 0 0 0-1.5-1c-9.528 4.51-19.528 7.18-30 8a317.668 317.668 0 0 1 33-11z"/><path fill="#101607" d="M275.125 660c5.348 1 10.68 2.34 16 4-.04 1.86.794 3.19 2.5 4 .333-.67.667-1.33 1-2 2.897 1.02 5.064 2.86 6.5 5.5 3.366 2.18 7.033 3.52 11 4 .837 1.01 1.17 2.18 1 3.5a506.95 506.95 0 0 1-38-19z"/><path fill="#aec483" d="M312.125 651c2.606.64 5.106.64 7.5 0a70.02 70.02 0 0 0 11.5 7.5c.949.62 1.782.45 2.5-.5 17.262 10.64 35.428 19.64 54.5 27 1.282 3.14 3.615 4.48 7 4v3a4822.738 4822.738 0 0 1-83-41z"/><path fill="#b2c786" d="M257.125 652c5.996 2.66 11.996 5.33 18 8a506.95 506.95 0 0 0 38 19c8.207 4.6 16.54 8.94 25 13-4.018-.79-8.018-1.96-12-3.5a678.936 678.936 0 0 0-52.5-25.5c-.902.24-1.735.58-2.5 1-1.02-1.45-2.187-1.79-3.5-1-.667-1.33-1.333-2.67-2-4-3.346-1.9-6.18-4.24-8.5-7z"/><path fill="#b2c982" d="M567.125 662a62.518 62.518 0 0 1-8 4 350.734 350.734 0 0 0-40 13 4562.258 4562.258 0 0 0-73 23c2.332-1.6 4.999-2.76 8-3.5.837-1.01 1.17-2.18 1-3.5 4.099.13 7.766-1.03 11-3.5-2.435-.07-3.102-.91-2-2.5.722-.42 1.222-1.08 1.5-2 1.65 4.99 3.984 5.32 7 1 2.876.39 5.709.72 8.5 1 12.467-3.37 24.8-7.2 37-11.5a29.954 29.954 0 0 0 6-4.5c5.2-1.08 9.7-3.41 13.5-7 3.355-1.31 7.189-1.31 11.5 0a252.592 252.592 0 0 1 18-4z"/><path fill="#748358" d="M649.125 662c.06-.54.393-.88 1-1 1.327 16.5 1.327 32.83 0 49 .33-16.18-.004-32.18-1-48z"/><path fill="#adc182" d="M64.125 680c8.85.61 16.516 3.78 23 9.5 9.304 4.62 18.637 9.28 28 14 5.866 1.07 10.533 3.9 14 8.5a2957.029 2957.029 0 0 1-65-32z"/><path fill="#b2c588" d="M163.125 683a2275.306 2275.306 0 0 1 99 49 80.58 80.58 0 0 1-15-5.5c-18.41-10.87-37.744-20.2-58-28a89.288 89.288 0 0 0-25-13c-.752-.67-1.086-1.5-1-2.5z"/><path fill="#0a1103" d="m223.125 685 14 6c16.208 8.6 32.542 16.94 49 25-3.742.02-7.242-1.31-10.5-4-.414.46-.914.79-1.5 1-.845-2.26-2.178-2.93-4-2-10.47-6.06-22.137-11.72-35-17a37.502 37.502 0 0 0-11-6.5c-.752-.67-1.086-1.5-1-2.5z"/><path fill="#f2c047" d="M775.125 742c.33-116 0-232-1-348a11.992 11.992 0 0 1-6 1v-1l8-1c.33 116.5 0 232.83-1 349z"/><path fill="#adc280" d="M148.125 721c5.625.6 10.958 2.1 16 4.5a1784.886 1784.886 0 0 0 35.5 18.5c1.107-.09 2.107-.42 3-1a9.39 9.39 0 0 0 1.5 2.5c6.072 2.29 11.738 5.12 17 8.5v3a3725.543 3725.543 0 0 1-73-36z"/><path fill="#fcfdfb" d="M978.125 733v83c-10.67.17-21.34 0-32-.5-.56-.38-.89-.88-1-1.5v-81h33z"/><path fill="#fdfdfb" d="M1037.125 733v82h-33v-82h33z"/><path fill="#fefefc" d="M1095.125 814c0 .67-.33 1-1 1h-31v-82h32v81z"/><path fill="#fafaf8" d="M1208.125 733h33v82h-32c-.49-.97-.99-1.97-1.5-3-.82-26.41-.66-52.74.5-79z"/><path fill="#fefefc" d="M1268.125 733h33v82h-33v-82zM1327.125 733h33v82h-33v-82z"/><path fill="#d6b262" d="M682.125 617h1v155h6c-2.15 1.24-4.482 2.24-7 3V617z"/><path fill="#b5ce79" d="M603.125 800c-3.716 1.91-7.716 3.24-12 4a719.682 719.682 0 0 0-50 15.5c-3.846 1.51-7.68 1.68-11.5.5-6.548 3.88-13.381 6.38-20.5 7.5.333.33.667.67 1 1-4.038 1.35-7.705 3.19-11 5.5-1.714 1.24-3.714 1.91-6 2a9.126 9.126 0 0 0-5 1 7.248 7.248 0 0 1-2.5-2c-2.043 2.32-4.543 3.15-7.5 2.5 1.333-.67 1.333-1.33 0-2-1.667-.67-3.333-.67-5 0 1.333.67 1.333 1.33 0 2 .667.33 1.333.67 2 1a14.398 14.398 0 0 0-5.5 2.5c-.333-.33-.667-.67-1-1a17.938 17.938 0 0 1-5 5c-1.762-.44-1.595-.94.5-1.5-4.05-.48-8.216.02-12.5 1.5a22.235 22.235 0 0 0-6.5-5.5c.284-1.96.284-4.12 0-6.5-3.054-.2-5.554-1.54-7.5-4-.5.33-1 .67-1.5 1 .502 1.22.835 2.38 1 3.5-1.063 1.19-2.397 1.69-4 1.5a4.939 4.939 0 0 0-.5-3c-1.016 1.13-1.683.8-2-1a8.878 8.878 0 0 0-3 4c-.347-1.68-1.347-2.68-3-3a37.321 37.321 0 0 1-5.5 2c-3.993-1.7-4.66-1.03-2 2-2.296.15-4.63.49-7 1a38.655 38.655 0 0 0-7 6 127.038 127.038 0 0 0-20-8c-2.637-2.07-3.637-4.57-3-7.5a6.824 6.824 0 0 1-3-1.5 19.031 19.031 0 0 1 5-3c-.15 4.09 1.516 4.75 5 2 3.477 1.24 6.477 3.24 9 6a19.031 19.031 0 0 1 5-3c-3.24-2.22-4.406-5.22-3.5-9a6.845 6.845 0 0 0 1.5 3c1.057-5.56 4.724-7.73 11-6.5-.667.33-1.333.67-2 1 .979 2.4 2.479 3.24 4.5 2.5 1.154 2.46 2.488 2.46 4 0 1.52 2.33 3.02 2.17 4.5-.5a23.447 23.447 0 0 1-3-3.5c-1.435 1.9-3.102 2.23-5 1 1.333-1.12 1.833-2.45 1.5-4-1.356.88-2.856 1.21-4.5 1a4.939 4.939 0 0 1 .5-3c1.333 1.33 2.667 1.33 4 0 1.779 2.78 2.779 2.44 3-1 2.878 1.29 2.712 2.79-.5 4.5.949.62 1.782.45 2.5-.5.667.67 1.333 1.33 2 2v-4c1.016 1.13 1.683.8 2-1 1 1.33 2 1.33 3 0 .767 3.61 2.6 6.61 5.5 9a26.393 26.393 0 0 0 2-3.5c3.507.2 6.84-.13 10-1a31.353 31.353 0 0 0-5-4.5c.209-.59.543-1.09 1-1.5 3.018.56 6.018.4 9-.5.169.9.502 1.9 1 3a6.845 6.845 0 0 0 1.5-3c2.025 2.38 4.525 3.21 7.5 2.5 1.449-1.12 3.116-1.78 5-2-1.35-1.64-1.182-3.14.5-4.5 2.022 1.49 3.688 1.16 5-1 .718.95 1.55 1.12 2.5.5-1.333-1.33-1.333-2.67 0-4a20.228 20.228 0 0 1 3.5-2.5c1.898 1.95 3.898 2.95 6 3 2.167-1.5 2-2.67-.5-3.5 3.42.12 6.088-1.21 8-4 4.785.27 8.785-1.23 12-4.5 3.962-1.47 8.128-2.47 12.5-3 .333.33.667.67 1 1a7.248 7.248 0 0 1 2.5-2c.169.9.502 1.9 1 3 4.353 3.33 7.02 2.33 8-3l2 3c.687-1.77 1.52-3.44 2.5-5 .5 1.17 1.333 2 2.5 2.5-2.43.45-2.596 1.28-.5 2.5a15.085 15.085 0 0 1 4.5-1.5c-1.537-1.11-2.203-2.61-2-4.5 1.7.47 3.2.47 4.5 0 .333.67.667 1.33 1 2 .309-1.27.809-2.43 1.5-3.5l-1-3a51.4 51.4 0 0 1 10-1.5v-3c9.2-2.56 18.2-5.89 27-10 .798-.46 1.13-1.12 1-2h1c10.479-.31 19.813-3.31 28-9a6.927 6.927 0 0 1 4-1c8.207-.79 15.874-3.29 23-7.5 4.794-.35 9.46-1.18 14-2.5.167 14.67 0 29.34-.5 44a46.756 46.756 0 0 1-16.5 4.5c-1.162.83-2.33 1.66-3.5 2.5a206.13 206.13 0 0 0-25.5 9z"/><path fill="#b6cd81" d="M549.125 743a261.68 261.68 0 0 1-17 7c-15.4 4.47-30.734 9.13-46 14 1.135-1.71 2.802-2.38 5-2-.466-1.7-.466-3.2 0-4.5-2.796-2.2-5.796-3.2-9-3 2.58-.54 4.747-1.7 6.5-3.5 3.236.89 6.236.89 9 0a25.553 25.553 0 0 0 4.5 4c1.708-2.19 3.708-2.52 6-1 4.793-1.95 10.126-3.11 16-3.5 5.43-1.03 10.43-3.03 15-6 3.354-.46 6.687-.96 10-1.5z"/><path fill="#90908f" d="M1208.125 733c11.15-.99 22.49-1.33 34-1v84c-11.18.33-22.18-.01-33-1h32v-82h-33z"/><path fill="#b5ce79" d="M338.125 692c3.525 2.45 7.192 4.95 11 7.5a218.624 218.624 0 0 1 35 17.5 14.706 14.706 0 0 1 1.5 5 4.942 4.942 0 0 1 2.5-1 13.127 13.127 0 0 0 6 2v3c8.23-.15 16.23 1.51 24 5a108.504 108.504 0 0 0 33.5-1c2.638-.31 4.805-1.47 6.5-3.5a79.066 79.066 0 0 1 10-2c-.333-.33-.667-.67-1-1a53.02 53.02 0 0 0 7-3.5c2.687.16 5.354 0 8-.5a912.784 912.784 0 0 1 71-23 31.201 31.201 0 0 0 8-4 3451.2 3451.2 0 0 0 45-14.5c2.21-1.16 4.21-2.49 6-4 1.333-.33 2.667-.67 4-1 10.472-.82 20.472-3.49 30-8 .586.21 1.086.54 1.5 1 .667 14 .667 28 0 42-2.954 2.1-5.788 4.1-8.5 6a3521.3 3521.3 0 0 1-90 29c-3.313.54-6.646 1.04-10 1.5-4.57 2.97-9.57 4.97-15 6-5.874.39-11.207 1.55-16 3.5-2.292-1.52-4.292-1.19-6 1a25.553 25.553 0 0 1-4.5-4c-2.764.89-5.764.89-9 0-1.753 1.8-3.92 2.96-6.5 3.5 3.204-.2 6.204.8 9 3-.466 1.3-.466 2.8 0 4.5-2.198-.38-3.865.29-5 2v1h-3c-4.69.64-9.356 1.47-14 2.5-13.46 6.97-27.46 10.8-42 11.5-5.783-.45-9.45-3.45-11-9-1.006.44-1.006 1.1 0 2a56.01 56.01 0 0 1-4.5 2c-3.984-.91-7.484-2.74-10.5-5.5a69.085 69.085 0 0 0-11-2.5c.13-.88-.202-1.54-1-2a209.984 209.984 0 0 0-26-13c-1.353-1.02-2.02-2.36-2-4a4.949 4.949 0 0 1-3-.5c-2.865-2.4-2.7-3.24.5-2.5a4.473 4.473 0 0 0 1.5-2c-4.013-.44-7.513-2.44-10.5-6-2.075 2.53-2.908 2.36-2.5-.5a8.394 8.394 0 0 0-4-.5c.15 3.43-1.016 3.76-3.5 1-.667-5.33-1.333-5.33-2 0a7.014 7.014 0 0 0-3.5-2.5c-5.348-.73-10.015-2.9-14-6.5a11.988 11.988 0 0 1-6 1c.42-2.17.42-4.17 0-6-2.68-.02-5.846-.02-9.5 0a16.68 16.68 0 0 1-5.5-4.5c2.716-2.79 2.382-4.96-1-6.5 1.355-1.18 1.188-2.18-.5-3-1.545 1.32-2.711.99-3.5-1 2.766.1 5.1-1.23 7-4-4.256-2.43-7.423-5.43-9.5-9-1.487.75-1.654 1.59-.5 2.5a7.014 7.014 0 0 0-3.5 2.5c-1.558-.85-2.558-.18-3 2-2.734-.86-2.901-1.69-.5-2.5-1.813.05-3.48-.12-5-.5-1.667 1-3 2.33-4 4-1.841.73-3.675 1.4-5.5 2a18.61 18.61 0 0 0-6.5-3.5c.333-.33.667-.67 1-1-1.26-1.11-2.427-1.28-3.5-.5a16.643 16.643 0 0 1-4-4c-1.073.78-2.24.61-3.5-.5.753-1.49 1.586-1.65 2.5-.5-.411-7.18 1.256-7.85 5-2a49.343 49.343 0 0 1 8-5c.216-1.88.883-3.55 2-5 2.15 2.61 2.985 2.61 2.5 0a7.352 7.352 0 0 1 3-2 23.444 23.444 0 0 0 3 7c1.094-1.37.76-2.53-1-3.5 1.749-2.21 3.749-3.21 6-3 .135-1.77.135-3.6 0-5.5-1.564.69-3.231.52-5-.5.333-.33.667-.67 1-1-1.721-1.44-3.221-.94-4.5 1.5-2.734-.86-2.901-1.69-.5-2.5-1.743-1.11-3.076-2.61-4-4.5-1 .33-1.667 1-2 2 .819 2.42.152 2.58-2 .5 1.333-1 1.333-2 0-3a8.394 8.394 0 0 1 4-.5v-3c.765-.42 1.598-.76 2.5-1a678.936 678.936 0 0 1 52.5 25.5c3.982 1.54 7.982 2.71 12 3.5z"/><path fill="#adc281" d="M338.125 692c23.645 11.49 47.31 22.99 71 34.5 10.762 3.32 21.762 4.32 33 3a582.884 582.884 0 0 1 32-9.5 53.02 53.02 0 0 1-7 3.5c.333.33.667.67 1 1a79.066 79.066 0 0 0-10 2c-1.695 2.03-3.862 3.19-6.5 3.5a108.504 108.504 0 0 1-33.5 1c-7.77-3.49-15.77-5.15-24-5v-3a13.127 13.127 0 0 1-6-2c-.942.11-1.775.44-2.5 1a14.706 14.706 0 0 0-1.5-5 218.624 218.624 0 0 0-35-17.5 769.107 769.107 0 0 1-11-7.5z"/><path fill="#acc082" d="M612.125 674c-1.79 1.51-3.79 2.84-6 4a3451.2 3451.2 0 0 1-45 14.5 31.201 31.201 0 0 1-8 4 912.784 912.784 0 0 0-71 23c-2.646.5-5.313.66-8 .5a5568.033 5568.033 0 0 1 138-46z"/><path fill="#aabe81" d="M395.125 692c2.98.12 5.813.79 8.5 2 .333-.33.667-.67 1-1a135.405 135.405 0 0 0 17.5 10.5c8.135.88 16.135.38 24-1.5-7.524 3.57-15.524 4.74-24 3.5-9.34-4-18.34-8.5-27-13.5z"/><path fill="#121709" d="M559.125 666a204.497 204.497 0 0 0-7 4c-.886.82-1.22 1.82-1 3a30.307 30.307 0 0 0-10-.5c-1.532.7-2.532 1.87-3 3.5a33.29 33.29 0 0 0-8.5 3c-3.477-1.01-6.977-1.01-10.5 0a350.734 350.734 0 0 1 40-13z"/><path fill="#aec184" d="M608.125 751c-8.187 5.69-17.521 8.69-28 9a170.845 170.845 0 0 1 28-9z"/><path fill="#251703" d="M680.125 418c.904.71 1.237 1.71 1 3 0 .667.333 1 1 1v353a15931.49 15931.49 0 0 1-2-357z"/><path fill="#1c1103" d="M755.125 750h4c-2.78 1.43-5.78 2.6-9 3.5-.67 1-1.33 2-2 3-8.222 3.94-16.888 5.78-26 5.5 11.062-3.85 22.06-7.85 33-12z"/><path fill="#0e1206" d="M532.125 750c-2.597 1.39-4.93 3.22-7 5.5-6.22 2.75-12.386 4.58-18.5 5.5-1.553 2.19-3.72 3.36-6.5 3.5 1.154.91.987 1.75-.5 2.5a7.32 7.32 0 0 1-2-3c-3.415-.17-7.25.17-11.5 1v-1c15.266-4.87 30.6-9.53 46-14z"/><path fill="#eabd4c" d="M755.125 750c-10.94 4.15-21.938 8.15-33 12-9 2.67-18 5.33-27 8-.086-1 .248-1.83 1-2.5a81.277 81.277 0 0 1 11-5c15.906-4.42 31.906-8.59 48-12.5z"/><path fill="#b2c687" d="M648.125 738c1.984 15.3 2.65 30.96 2 47a646.202 646.202 0 0 1-47 15 206.13 206.13 0 0 1 25.5-9c1.17-.84 2.338-1.67 3.5-2.5a46.756 46.756 0 0 0 16.5-4.5c.5-14.66.667-29.33.5-44a67.634 67.634 0 0 1-14 2.5c-7.126 4.21-14.793 6.71-23 7.5 11.405-5.36 23.405-9.36 36-12z"/><path fill="#a5ba7d" d="M221.125 757c6.218-.1 11.55 1.9 16 6 5.954 1.64 10.954 4.64 15 9a221.926 221.926 0 0 1-31-15z"/><path fill="#819263" d="M648.125 738c.709-.9 1.709-1.24 3-1 .33 16.18-.004 32.18-1 48 .65-16.04-.016-31.7-2-47z"/><path fill="#b2c784" d="M483.125 765c-13.79 5.1-27.79 9.93-42 14.5-8.023 1.92-16.023 1.92-24 0a255.754 255.754 0 0 1-27-13.5c3.712.53 7.379 1.36 11 2.5 3.016 2.76 6.516 4.59 10.5 5.5a56.01 56.01 0 0 0 4.5-2c-1.006-.9-1.006-1.56 0-2 1.55 5.55 5.217 8.55 11 9 14.54-.7 28.54-4.53 42-11.5 4.644-1.03 9.31-1.86 14-2.5z"/><path fill="#b2c981" d="M579.125 760c.13.88-.202 1.54-1 2-8.8 4.11-17.8 7.44-27 10v3a51.4 51.4 0 0 0-10 1.5l1 3a11.323 11.323 0 0 0-1.5 3.5c-.333-.67-.667-1.33-1-2-1.3.47-2.8.47-4.5 0-.203 1.89.463 3.39 2 4.5-1.601.27-3.101.77-4.5 1.5-2.096-1.22-1.93-2.05.5-2.5-1.167-.5-2-1.33-2.5-2.5a29.327 29.327 0 0 0-2.5 5l-2-3c-.98 5.33-3.647 6.33-8 3-.498-1.1-.831-2.1-1-3a7.248 7.248 0 0 0-2.5 2c-.333-.33-.667-.67-1-1-4.372.53-8.538 1.53-12.5 3-9.686 2.67-19.353 5.34-29 8a2520.545 2520.545 0 0 1 107-36z"/><path fill="#a4a4a4" d="M1095.125 814v-81h-32v82h31c-10.49.99-21.15 1.33-32 1v-84h34c.33 27.51 0 54.84-1 82z"/><path fill="#b3ca7e" d="M252.125 772c3.022.3 6.022.8 9 1.5a243.842 243.842 0 0 0 20 8.5l6-1.5c-2.218-2.16-3.385-4.66-3.5-7.5a7.014 7.014 0 0 0 3.5 2.5c-1.104 1.13-.771 1.96 1 2.5l2-3c.194 1.54 1.36 2.88 3.5 4 2.76-3.28 5.76-3.95 9-2 .974-2.38 1.64-2.04 2 1 .667-1.33 1.333-1.33 2 0a49.935 49.935 0 0 0 2.5 13c-2.948-.18-5.614-.18-8 0a44.112 44.112 0 0 0 7 6c.886.82 1.219 1.82 1 3a2270.787 2270.787 0 0 1-57-28z"/><path fill="#6c6c6c" d="M1120.125 726c1 17.16 1.33 34.49 1 52h61c-20.49 1-41.16 1.33-62 1v-53z"/><path fill="#6d6e6d" d="M1385.125 726c1 17.16 1.33 34.49 1 52h107c-35.83 1-71.83 1.33-108 1v-53z"/><path fill="#bfbfbe" d="M1268.125 733v82h33c-11.15.99-22.49 1.33-34 1-.33-27.84 0-55.51 1-83z"/><path fill="#9e9e9e" d="M1037.125 733h-33v82h33c-11.15.99-22.49 1.33-34 1v-84c11.51-.33 22.85.01 34 1z"/><path fill="#b6cd81" d="M276.125 738a6219.182 6219.182 0 0 0 134 65 60.726 60.726 0 0 0 7 3c-3.802.13-7.468-.53-11-2-1.394.12-2.728.45-4 1-.504 2.84-2.171 4.18-5 4v-3c-1.175.22-2.175-.11-3-1 .826-.95.992-1.95.5-3a20.228 20.228 0 0 1-3.5-2.5c-2.834-2.18-4.168-1.68-4 1.5-2.51.5-5.01 1.16-7.5 2-1.167-.33-2.333-.67-3.5-1a36.184 36.184 0 0 0-5-8.5c.667-.33 1.333-.67 2-1-1.333-.67-1.333-1.33 0-2a9.246 9.246 0 0 1-2.5-1.5c-1.814 1.26-3.647 1.26-5.5 0a4.486 4.486 0 0 1 2-1.5 40.984 40.984 0 0 0-4-4.5 438.496 438.496 0 0 0-37-17c-.667.33-1.333.67-2 1a96.616 96.616 0 0 1-10.5-6 9.246 9.246 0 0 1-2.5 1.5c.928.39 1.595 1.05 2 2-1.527 5.4-4.193 5.9-8 1.5 1.21-1.22 1.21-2.39 0-3.5-1.238.08-2.238-.09-3-.5.132-2.58.465-5.08 1-7.5a376.829 376.829 0 0 0-23-13 8.394 8.394 0 0 0-4-.5v-3z"/><path fill="#868585" d="M978.125 733h-33v81c-1-27.16-1.33-54.49-1-82 11.51-.33 22.85.01 34 1z"/><path fill="#171f0d" d="M410.125 803a129.288 129.288 0 0 0 28 2c-6.813.99-13.813 1.32-21 1a60.726 60.726 0 0 1-7-3z"/><path fill="#b2c689" d="M472.125 796c-9.24 3.49-18.573 6.99-28 10.5a97.386 97.386 0 0 1-25 1c-.916-.28-1.582-.78-2-1.5 7.187.32 14.187-.01 21-1a480.97 480.97 0 0 0 34-9z"/><path fill="#c0c0bf" d="M1327.125 733v82h33c-11.15.99-22.49 1.33-34 1-.33-27.84 0-55.51 1-83z"/><path fill="#13190b" d="M590.125 805c-.453.96-1.12 1.79-2 2.5-5.01 1.51-9.343 3.51-13 6-4.93-.04-9.597.96-14 3 .333.33.667.67 1 1-7.353 2.99-15.02 4.49-23 4.5a2276.84 2276.84 0 0 1 51-17z"/><path fill="#b4c984" d="M591.125 804c0 .67-.333 1-1 1a2276.84 2276.84 0 0 0-51 17c-13.274 4.2-26.607 8.2-40 12 3.295-2.31 6.962-4.15 11-5.5-.333-.33-.667-.67-1-1 7.119-1.12 13.952-3.62 20.5-7.5 3.82 1.18 7.654 1.01 11.5-.5a719.682 719.682 0 0 1 50-15.5z"/><path fill="#9dae7b" d="M451.125 850a97.148 97.148 0 0 1-16 5.5c-4.852.82-9.52.65-14-.5 3.682.17 7.348 0 11-.5a198.669 198.669 0 0 1 19-4.5z"/></svg>